<svg xmlns="http://www.w3.org/2000/svg" xmlns:xlink="http://www.w3.org/1999/xlink" width="150" zoomAndPan="magnify" viewBox="0 0 112.5 74.999997" height="100" preserveAspectRatio="xMidYMid meet" version="1.0"><defs><filter x="0%" y="0%" width="100%" height="100%" id="805a00412e"><feColorMatrix values="0 0 0 0 1 0 0 0 0 1 0 0 0 0 1 0 0 0 1 0" color-interpolation-filters="sRGB"/></filter><g/><clipPath id="6b452563c8"><path d="M 42.75 69.886719 L 43.105469 69.886719 L 43.105469 70.21875 L 42.75 70.21875 Z M 42.75 69.886719 " clip-rule="nonzero"/></clipPath><clipPath id="8bba5e47f3"><path d="M 43.082031 70.128906 C 42.410156 70.355469 43.007812 69.90625 43.007812 69.90625 " clip-rule="nonzero"/></clipPath><mask id="343e6ce882"><g filter="url(#805a00412e)"><rect x="-11.25" width="135" fill="#000000" y="-7.5" height="89.999996" fill-opacity="0.01"/></g></mask><clipPath id="cedebef309"><path d="M 0.75 0.886719 L 1.105469 0.886719 L 1.105469 1.21875 L 0.75 1.21875 Z M 0.75 0.886719 " clip-rule="nonzero"/></clipPath><clipPath id="71ca46c79e"><path d="M 1.082031 1.128906 C 0.410156 1.355469 1.007812 0.90625 1.007812 0.90625 " clip-rule="nonzero"/></clipPath><clipPath id="8f6dae3450"><rect x="0" width="2" y="0" height="2"/></clipPath><clipPath id="56bc4e7f88"><path d="M 3.824219 55.109375 L 4.484375 55.109375 L 4.484375 56.9375 L 3.824219 56.9375 Z M 3.824219 55.109375 " clip-rule="nonzero"/></clipPath><clipPath id="24a1657b68"><path d="M 4.179688 56.914062 C 3.285156 55.421875 4.480469 55.121094 4.480469 55.121094 " clip-rule="nonzero"/></clipPath><mask id="b17e10fea7"><g filter="url(#805a00412e)"><rect x="-11.25" width="135" fill="#000000" y="-7.5" height="89.999996" fill-opacity="0.01"/></g></mask><clipPath id="762d9e9540"><path d="M 0.824219 0.121094 L 1.484375 0.121094 L 1.484375 1.9375 L 0.824219 1.9375 Z M 0.824219 0.121094 " clip-rule="nonzero"/></clipPath><clipPath id="6c9b7275ef"><path d="M 1.179688 1.914062 C 0.285156 0.421875 1.480469 0.121094 1.480469 0.121094 " clip-rule="nonzero"/></clipPath><clipPath id="b1651a81b4"><rect x="0" width="2" y="0" height="2"/></clipPath><clipPath id="3825379f75"><path d="M 3.496094 55.183594 L 4.925781 55.183594 L 4.925781 57.296875 L 3.496094 57.296875 Z M 3.496094 55.183594 " clip-rule="nonzero"/></clipPath><clipPath id="7ce5059ce6"><path d="M 3.585938 56.914062 C 4.179688 55.867188 4.40625 57.0625 4.179688 57.210938 C 4.105469 57.363281 3.585938 57.210938 3.507812 57.0625 C 3.433594 56.839844 4.03125 55.792969 4.179688 55.792969 C 4.332031 55.867188 4.480469 56.914062 4.332031 57.0625 C 4.257812 57.210938 3.734375 57.0625 3.660156 56.914062 C 3.507812 56.691406 4.105469 55.34375 4.257812 55.34375 C 4.40625 55.34375 4.703125 56.914062 4.480469 57.0625 C 4.40625 57.210938 3.882812 57.0625 3.808594 56.914062 C 3.660156 56.613281 4.257812 55.195312 4.40625 55.195312 C 4.480469 55.195312 4.777344 56.914062 4.628906 56.988281 C 4.480469 57.0625 3.957031 56.539062 3.957031 56.316406 C 3.957031 56.019531 4.777344 55.496094 4.703125 55.421875 C 4.703125 55.421875 4.105469 55.71875 4.105469 55.71875 C 4.105469 55.792969 4.703125 55.496094 4.851562 55.644531 C 5.003906 55.792969 4.851562 56.839844 4.628906 56.988281 C 4.480469 57.136719 4.03125 56.988281 3.957031 56.839844 C 3.808594 56.613281 4.257812 55.195312 4.40625 55.195312 C 4.480469 55.195312 4.703125 56.839844 4.480469 57.0625 C 4.40625 57.210938 3.957031 57.136719 3.808594 56.988281 C 3.660156 56.765625 4.105469 55.34375 4.257812 55.34375 C 4.332031 55.34375 4.554688 56.914062 4.332031 57.0625 C 4.257812 57.210938 3.734375 57.136719 3.660156 56.988281 C 3.585938 56.839844 4.03125 55.792969 4.179688 55.792969 C 4.257812 55.867188 4.480469 56.765625 4.332031 56.914062 C 4.179688 56.988281 3.585938 56.839844 3.507812 56.691406 C 3.433594 56.539062 3.957031 55.941406 4.105469 56.019531 C 4.257812 56.019531 4.332031 57.0625 4.179688 57.210938 C 4.105469 57.363281 3.585938 57.210938 3.507812 57.0625 C 3.433594 56.839844 4.105469 55.867188 4.105469 55.867188 C 4.105469 55.867188 3.585938 56.914062 3.585938 56.914062 " clip-rule="nonzero"/></clipPath><mask id="d663f1b4aa"><g filter="url(#805a00412e)"><rect x="-11.25" width="135" fill="#000000" y="-7.5" height="89.999996" fill-opacity="0.01"/></g></mask><clipPath id="ecbdbc21e5"><path d="M 0.496094 0.183594 L 1.925781 0.183594 L 1.925781 2.296875 L 0.496094 2.296875 Z M 0.496094 0.183594 " clip-rule="nonzero"/></clipPath><clipPath id="6f7caa422c"><path d="M 0.585938 1.914062 C 1.179688 0.867188 1.40625 2.0625 1.179688 2.210938 C 1.105469 2.363281 0.585938 2.210938 0.507812 2.0625 C 0.433594 1.839844 1.03125 0.792969 1.179688 0.792969 C 1.332031 0.867188 1.480469 1.914062 1.332031 2.0625 C 1.257812 2.210938 0.734375 2.0625 0.660156 1.914062 C 0.507812 1.691406 1.105469 0.34375 1.257812 0.34375 C 1.40625 0.34375 1.703125 1.914062 1.480469 2.0625 C 1.40625 2.210938 0.882812 2.0625 0.808594 1.914062 C 0.660156 1.613281 1.257812 0.195312 1.40625 0.195312 C 1.480469 0.195312 1.777344 1.914062 1.628906 1.988281 C 1.480469 2.0625 0.957031 1.539062 0.957031 1.316406 C 0.957031 1.019531 1.777344 0.496094 1.703125 0.421875 C 1.703125 0.421875 1.105469 0.71875 1.105469 0.71875 C 1.105469 0.792969 1.703125 0.496094 1.851562 0.644531 C 2.003906 0.792969 1.851562 1.839844 1.628906 1.988281 C 1.480469 2.136719 1.03125 1.988281 0.957031 1.839844 C 0.808594 1.613281 1.257812 0.195312 1.40625 0.195312 C 1.480469 0.195312 1.703125 1.839844 1.480469 2.0625 C 1.40625 2.210938 0.957031 2.136719 0.808594 1.988281 C 0.660156 1.765625 1.105469 0.34375 1.257812 0.34375 C 1.332031 0.34375 1.554688 1.914062 1.332031 2.0625 C 1.257812 2.210938 0.734375 2.136719 0.660156 1.988281 C 0.585938 1.839844 1.03125 0.792969 1.179688 0.792969 C 1.257812 0.867188 1.480469 1.765625 1.332031 1.914062 C 1.179688 1.988281 0.585938 1.839844 0.507812 1.691406 C 0.433594 1.539062 0.957031 0.941406 1.105469 1.019531 C 1.257812 1.019531 1.332031 2.0625 1.179688 2.210938 C 1.105469 2.363281 0.585938 2.210938 0.507812 2.0625 C 0.433594 1.839844 1.105469 0.867188 1.105469 0.867188 C 1.105469 0.867188 0.585938 1.914062 0.585938 1.914062 " clip-rule="nonzero"/></clipPath><clipPath id="3c1c72085d"><rect x="0" width="2" y="0" height="3"/></clipPath><clipPath id="d336506da7"><path d="M 1.707031 55.632812 L 5.160156 55.632812 L 5.160156 60.082031 L 1.707031 60.082031 Z M 1.707031 55.632812 " clip-rule="nonzero"/></clipPath><clipPath id="a965759076"><path d="M 4.179688 56.167969 C 3.882812 58.109375 3.507812 58.035156 3.359375 57.882812 C 3.136719 57.585938 3.660156 55.792969 3.660156 55.792969 C 3.734375 55.792969 3.808594 57.585938 3.660156 57.660156 C 3.507812 57.660156 3.210938 56.914062 3.0625 56.914062 C 2.835938 56.988281 2.316406 57.960938 2.464844 58.183594 C 2.613281 58.480469 3.808594 58.632812 4.03125 58.40625 C 4.332031 58.183594 4.257812 56.914062 4.105469 56.914062 C 3.882812 56.839844 2.6875 58.480469 2.761719 58.855469 C 2.835938 59.078125 3.433594 59.378906 3.660156 59.304688 C 3.957031 59.152344 4.179688 58.332031 4.105469 58.109375 C 4.03125 57.882812 3.433594 57.585938 3.359375 57.660156 C 3.210938 57.734375 3.507812 59.003906 3.660156 59.078125 C 3.957031 59.078125 4.703125 57.4375 4.777344 57.511719 C 4.929688 57.511719 4.628906 59.304688 4.257812 59.601562 C 3.957031 59.824219 3.359375 59.824219 3.0625 59.675781 C 2.6875 59.527344 2.316406 58.929688 2.316406 58.554688 C 2.390625 58.035156 3.285156 56.839844 3.734375 56.839844 C 4.105469 56.914062 4.777344 58.40625 4.703125 59.003906 C 4.628906 59.378906 4.179688 59.902344 3.734375 60.050781 C 3.285156 60.125 2.316406 59.824219 2.089844 59.453125 C 1.867188 58.929688 2.464844 57.210938 2.910156 56.765625 C 3.285156 56.316406 4.03125 56.09375 4.40625 56.242188 C 4.777344 56.390625 5.152344 57.136719 5.152344 57.585938 C 5.152344 58.109375 4.628906 58.929688 4.179688 59.152344 C 3.808594 59.378906 3.136719 59.453125 2.6875 59.226562 C 2.316406 59.078125 1.792969 58.554688 1.71875 58.109375 C 1.71875 57.585938 2.464844 56.390625 2.988281 56.167969 C 3.285156 56.019531 3.957031 56.09375 4.105469 56.316406 C 4.257812 56.539062 4.179688 57.210938 3.957031 57.363281 C 3.808594 57.585938 3.0625 57.660156 2.910156 57.511719 C 2.761719 57.285156 3.507812 55.792969 3.660156 55.792969 C 3.882812 55.867188 4.03125 58.109375 3.957031 58.109375 C 3.882812 58.109375 3.359375 56.914062 3.359375 56.464844 C 3.359375 56.09375 3.585938 55.71875 3.734375 55.644531 C 3.882812 55.644531 4.179688 56.167969 4.179688 56.167969 " clip-rule="nonzero"/></clipPath><mask id="b2b379a3ff"><g filter="url(#805a00412e)"><rect x="-11.25" width="135" fill="#000000" y="-7.5" height="89.999996" fill-opacity="0.01"/></g></mask><clipPath id="e58f8b0d1a"><path d="M 0.707031 0.632812 L 4.160156 0.632812 L 4.160156 5.082031 L 0.707031 5.082031 Z M 0.707031 0.632812 " clip-rule="nonzero"/></clipPath><clipPath id="d46d08a99f"><path d="M 3.179688 1.167969 C 2.882812 3.109375 2.507812 3.035156 2.359375 2.882812 C 2.136719 2.585938 2.660156 0.792969 2.660156 0.792969 C 2.734375 0.792969 2.808594 2.585938 2.660156 2.660156 C 2.507812 2.660156 2.210938 1.914062 2.0625 1.914062 C 1.835938 1.988281 1.316406 2.960938 1.464844 3.183594 C 1.613281 3.480469 2.808594 3.632812 3.03125 3.40625 C 3.332031 3.183594 3.257812 1.914062 3.105469 1.914062 C 2.882812 1.839844 1.6875 3.480469 1.761719 3.855469 C 1.835938 4.078125 2.433594 4.378906 2.660156 4.304688 C 2.957031 4.152344 3.179688 3.332031 3.105469 3.109375 C 3.03125 2.882812 2.433594 2.585938 2.359375 2.660156 C 2.210938 2.734375 2.507812 4.003906 2.660156 4.078125 C 2.957031 4.078125 3.703125 2.4375 3.777344 2.511719 C 3.929688 2.511719 3.628906 4.304688 3.257812 4.601562 C 2.957031 4.824219 2.359375 4.824219 2.0625 4.675781 C 1.6875 4.527344 1.316406 3.929688 1.316406 3.554688 C 1.390625 3.035156 2.285156 1.839844 2.734375 1.839844 C 3.105469 1.914062 3.777344 3.40625 3.703125 4.003906 C 3.628906 4.378906 3.179688 4.902344 2.734375 5.050781 C 2.285156 5.125 1.316406 4.824219 1.089844 4.453125 C 0.867188 3.929688 1.464844 2.210938 1.910156 1.765625 C 2.285156 1.316406 3.03125 1.09375 3.40625 1.242188 C 3.777344 1.390625 4.152344 2.136719 4.152344 2.585938 C 4.152344 3.109375 3.628906 3.929688 3.179688 4.152344 C 2.808594 4.378906 2.136719 4.453125 1.6875 4.226562 C 1.316406 4.078125 0.792969 3.554688 0.71875 3.109375 C 0.71875 2.585938 1.464844 1.390625 1.988281 1.167969 C 2.285156 1.019531 2.957031 1.09375 3.105469 1.316406 C 3.257812 1.539062 3.179688 2.210938 2.957031 2.363281 C 2.808594 2.585938 2.0625 2.660156 1.910156 2.511719 C 1.761719 2.285156 2.507812 0.792969 2.660156 0.792969 C 2.882812 0.867188 3.03125 3.109375 2.957031 3.109375 C 2.882812 3.109375 2.359375 1.914062 2.359375 1.464844 C 2.359375 1.09375 2.585938 0.71875 2.734375 0.644531 C 2.882812 0.644531 3.179688 1.167969 3.179688 1.167969 " clip-rule="nonzero"/></clipPath><clipPath id="f08ce8e9b5"><rect x="0" width="5" y="0" height="6"/></clipPath><clipPath id="ff8ca92595"><path d="M 20.496094 55.417969 L 33.320312 55.417969 L 33.320312 58.261719 L 20.496094 58.261719 Z M 20.496094 55.417969 " clip-rule="nonzero"/></clipPath><clipPath id="a48f02ea32"><path d="M 22.996094 57.882812 C 20.535156 57.734375 20.460938 57.363281 20.609375 57.210938 C 21.132812 56.464844 26.957031 55.792969 28.375 55.570312 C 28.972656 55.496094 29.34375 55.34375 29.492188 55.496094 C 29.644531 55.644531 29.644531 56.019531 29.492188 56.242188 C 28.820312 56.988281 21.429688 58.40625 20.757812 57.882812 C 20.535156 57.734375 20.535156 57.363281 20.757812 57.136719 C 21.429688 56.316406 28.671875 56.167969 30.6875 56.019531 C 31.511719 55.941406 32.332031 55.792969 32.554688 56.019531 C 32.628906 56.09375 32.628906 56.464844 32.480469 56.691406 C 31.808594 57.363281 25.386719 58.632812 24.789062 58.109375 C 24.566406 57.960938 24.566406 57.660156 24.714844 57.4375 C 25.3125 56.691406 32.257812 55.421875 33.078125 55.941406 C 33.300781 56.09375 33.300781 56.691406 33.300781 56.691406 C 33.300781 56.691406 33.078125 55.941406 33.078125 55.941406 C 33.078125 55.941406 33.375 56.464844 33.226562 56.691406 C 32.703125 57.4375 25.609375 58.632812 24.863281 58.109375 C 24.640625 57.960938 24.566406 57.660156 24.714844 57.4375 C 25.089844 56.839844 28.074219 56.316406 29.417969 56.09375 C 30.539062 55.867188 32.105469 55.644531 32.480469 55.941406 C 32.628906 56.09375 32.628906 56.464844 32.480469 56.691406 C 31.660156 57.511719 21.503906 58.554688 20.683594 57.882812 C 20.460938 57.734375 20.460938 57.363281 20.609375 57.210938 C 20.757812 56.914062 21.429688 56.839844 22.101562 56.691406 C 23.59375 56.316406 27.703125 55.121094 28.746094 55.496094 C 29.195312 55.644531 29.570312 56.019531 29.492188 56.242188 C 29.34375 56.765625 25.238281 57.210938 23.59375 57.4375 C 22.550781 57.660156 21.207031 58.183594 20.757812 57.882812 C 20.609375 57.734375 20.535156 57.363281 20.609375 57.210938 C 20.832031 56.914062 22.847656 56.839844 23.074219 57.136719 C 23.222656 57.285156 22.996094 57.882812 22.996094 57.882812 " clip-rule="nonzero"/></clipPath><mask id="96a98ac819"><g filter="url(#805a00412e)"><rect x="-11.25" width="135" fill="#000000" y="-7.5" height="89.999996" fill-opacity="0.01"/></g></mask><clipPath id="47f3c2f4a7"><path d="M 0.496094 0.417969 L 13.320312 0.417969 L 13.320312 3.261719 L 0.496094 3.261719 Z M 0.496094 0.417969 " clip-rule="nonzero"/></clipPath><clipPath id="322b51b304"><path d="M 2.996094 2.882812 C 0.535156 2.734375 0.460938 2.363281 0.609375 2.210938 C 1.132812 1.464844 6.957031 0.792969 8.375 0.570312 C 8.972656 0.496094 9.34375 0.34375 9.492188 0.496094 C 9.644531 0.644531 9.644531 1.019531 9.492188 1.242188 C 8.820312 1.988281 1.429688 3.40625 0.757812 2.882812 C 0.535156 2.734375 0.535156 2.363281 0.757812 2.136719 C 1.429688 1.316406 8.671875 1.167969 10.6875 1.019531 C 11.511719 0.941406 12.332031 0.792969 12.554688 1.019531 C 12.628906 1.09375 12.628906 1.464844 12.480469 1.691406 C 11.808594 2.363281 5.386719 3.632812 4.789062 3.109375 C 4.566406 2.960938 4.566406 2.660156 4.714844 2.4375 C 5.3125 1.691406 12.257812 0.421875 13.078125 0.941406 C 13.300781 1.09375 13.300781 1.691406 13.300781 1.691406 C 13.300781 1.691406 13.078125 0.941406 13.078125 0.941406 C 13.078125 0.941406 13.375 1.464844 13.226562 1.691406 C 12.703125 2.4375 5.609375 3.632812 4.863281 3.109375 C 4.640625 2.960938 4.566406 2.660156 4.714844 2.4375 C 5.089844 1.839844 8.074219 1.316406 9.417969 1.09375 C 10.539062 0.867188 12.105469 0.644531 12.480469 0.941406 C 12.628906 1.09375 12.628906 1.464844 12.480469 1.691406 C 11.660156 2.511719 1.503906 3.554688 0.683594 2.882812 C 0.460938 2.734375 0.460938 2.363281 0.609375 2.210938 C 0.757812 1.914062 1.429688 1.839844 2.101562 1.691406 C 3.59375 1.316406 7.703125 0.121094 8.746094 0.496094 C 9.195312 0.644531 9.570312 1.019531 9.492188 1.242188 C 9.34375 1.765625 5.238281 2.210938 3.59375 2.4375 C 2.550781 2.660156 1.207031 3.183594 0.757812 2.882812 C 0.609375 2.734375 0.535156 2.363281 0.609375 2.210938 C 0.832031 1.914062 2.847656 1.839844 3.074219 2.136719 C 3.222656 2.285156 2.996094 2.882812 2.996094 2.882812 " clip-rule="nonzero"/></clipPath><clipPath id="5e51773295"><rect x="0" width="14" y="0" height="4"/></clipPath><clipPath id="f968b53fb1"><path d="M 27.535156 47.164062 L 34.464844 47.164062 L 34.464844 54.046875 L 27.535156 54.046875 Z M 27.535156 47.164062 " clip-rule="nonzero"/></clipPath><clipPath id="d3775040e9"><path d="M 28.523438 52.882812 C 27.777344 48.925781 28.746094 47.804688 29.570312 47.429688 C 30.464844 47.058594 31.957031 47.132812 32.703125 47.65625 C 33.527344 48.175781 34.273438 49.445312 34.273438 50.417969 C 34.273438 51.3125 33.601562 52.65625 32.855469 53.253906 C 32.105469 53.777344 30.613281 54 29.71875 53.628906 C 28.898438 53.328125 27.851562 52.210938 27.628906 51.3125 C 27.402344 50.417969 27.851562 48.925781 28.449219 48.253906 C 28.820312 47.65625 29.570312 47.28125 30.316406 47.207031 C 31.136719 47.132812 32.628906 47.503906 33.300781 48.101562 C 33.898438 48.625 34.347656 49.523438 34.421875 50.195312 C 34.496094 50.941406 34.347656 51.910156 33.824219 52.582031 C 33.300781 53.253906 31.957031 53.925781 31.0625 54 C 30.316406 54.078125 28.820312 53.179688 28.820312 53.179688 " clip-rule="nonzero"/></clipPath><mask id="e528503dde"><g filter="url(#805a00412e)"><rect x="-11.25" width="135" fill="#000000" y="-7.5" height="89.999996" fill-opacity="0.01"/></g></mask><clipPath id="9611b1e6fb"><path d="M 0.535156 0.164062 L 7.464844 0.164062 L 7.464844 7.046875 L 0.535156 7.046875 Z M 0.535156 0.164062 " clip-rule="nonzero"/></clipPath><clipPath id="4a418138bb"><path d="M 1.523438 5.882812 C 0.777344 1.925781 1.746094 0.804688 2.570312 0.429688 C 3.464844 0.0585938 4.957031 0.132812 5.703125 0.65625 C 6.527344 1.175781 7.273438 2.445312 7.273438 3.417969 C 7.273438 4.3125 6.601562 5.65625 5.855469 6.253906 C 5.105469 6.777344 3.613281 7 2.71875 6.628906 C 1.898438 6.328125 0.851562 5.210938 0.628906 4.3125 C 0.402344 3.417969 0.851562 1.925781 1.449219 1.253906 C 1.820312 0.65625 2.570312 0.28125 3.316406 0.207031 C 4.136719 0.132812 5.628906 0.503906 6.300781 1.101562 C 6.898438 1.625 7.347656 2.523438 7.421875 3.195312 C 7.496094 3.941406 7.347656 4.910156 6.824219 5.582031 C 6.300781 6.253906 4.957031 6.925781 4.0625 7 C 3.316406 7.078125 1.820312 6.179688 1.820312 6.179688 " clip-rule="nonzero"/></clipPath><clipPath id="6c2ae9c0c2"><rect x="0" width="8" y="0" height="8"/></clipPath><clipPath id="af61cb9bf2"><path d="M 0 50.667969 L 11.171875 50.667969 L 11.171875 62.15625 L 0 62.15625 Z M 0 50.667969 " clip-rule="nonzero"/></clipPath><clipPath id="e7a4d3c942"><path d="M 0 58.855469 C 0.222656 54.824219 0.449219 54.824219 0.523438 54.671875 C 0.597656 54.523438 0.597656 54.300781 0.597656 54.300781 C 0.597656 54.300781 0.746094 54.078125 0.746094 53.925781 C 0.820312 53.777344 0.96875 53.554688 0.96875 53.554688 C 0.96875 53.554688 1.046875 53.480469 1.121094 53.40625 C 1.121094 53.328125 1.195312 53.253906 1.195312 53.179688 C 1.269531 53.03125 1.34375 52.808594 1.34375 52.808594 C 1.34375 52.730469 1.492188 52.582031 1.566406 52.433594 C 1.644531 52.285156 1.792969 52.058594 1.792969 52.058594 C 1.792969 52.058594 1.941406 51.910156 2.089844 51.835938 C 2.164062 51.6875 2.316406 51.539062 2.390625 51.539062 C 2.390625 51.539062 2.613281 51.386719 2.6875 51.3125 C 2.835938 51.238281 3.0625 51.164062 3.0625 51.164062 C 3.0625 51.164062 3.285156 51.089844 3.433594 51.015625 C 3.585938 51.015625 3.808594 50.941406 3.808594 50.941406 C 3.882812 50.941406 4.105469 50.941406 4.179688 50.941406 C 4.179688 50.941406 4.179688 50.867188 4.257812 50.867188 C 4.257812 50.867188 4.332031 50.867188 4.332031 50.867188 C 4.332031 50.867188 4.554688 50.789062 4.703125 50.789062 C 4.851562 50.789062 5.078125 50.714844 5.078125 50.714844 C 5.078125 50.714844 5.375 50.789062 5.527344 50.789062 C 5.675781 50.789062 5.898438 50.789062 5.898438 50.789062 C 5.898438 50.789062 6.199219 50.867188 6.273438 50.941406 C 6.421875 51.015625 6.644531 51.089844 6.644531 51.089844 C 6.644531 51.089844 6.871094 51.238281 7.019531 51.3125 C 7.09375 51.386719 7.316406 51.539062 7.390625 51.539062 C 7.390625 51.539062 7.542969 51.761719 7.617188 51.835938 C 7.691406 51.835938 7.691406 51.910156 7.765625 51.910156 C 7.839844 51.984375 8.140625 51.910156 8.140625 51.910156 C 8.140625 51.910156 8.214844 51.910156 8.214844 51.910156 C 8.289062 51.910156 8.289062 51.984375 8.363281 51.984375 C 8.4375 51.984375 8.4375 51.984375 8.511719 52.058594 C 8.660156 52.058594 8.960938 52.136719 8.960938 52.136719 C 8.960938 52.136719 9.109375 52.210938 9.109375 52.210938 C 9.183594 52.210938 9.257812 52.210938 9.257812 52.285156 C 9.332031 52.285156 9.332031 52.359375 9.40625 52.359375 C 9.484375 52.433594 9.632812 52.507812 9.632812 52.507812 C 9.632812 52.507812 9.929688 52.730469 9.929688 52.730469 C 10.003906 52.808594 10.003906 52.808594 10.003906 52.808594 C 10.082031 52.808594 10.15625 52.882812 10.15625 52.882812 C 10.15625 52.957031 10.15625 52.957031 10.230469 52.957031 C 10.230469 52.957031 10.230469 53.03125 10.304688 53.03125 C 10.304688 53.03125 10.453125 53.253906 10.527344 53.328125 C 10.601562 53.480469 10.753906 53.703125 10.753906 53.703125 C 10.753906 53.703125 10.753906 53.703125 10.753906 53.777344 C 10.828125 53.851562 10.828125 53.925781 10.828125 53.925781 C 10.828125 54 10.828125 54 10.902344 54.078125 C 10.902344 54.152344 11.050781 54.449219 11.050781 54.449219 C 11.050781 54.449219 11.050781 54.597656 11.050781 54.671875 C 11.050781 54.75 11.125 54.75 11.125 54.824219 C 11.125 54.898438 11.125 54.898438 11.125 54.972656 C 11.125 55.046875 11.125 55.269531 11.125 55.269531 C 11.125 55.269531 11.125 55.570312 11.050781 55.644531 C 11.050781 55.71875 11.050781 55.71875 11.050781 55.71875 C 11.050781 55.792969 11.050781 55.867188 11.050781 55.941406 C 11.050781 56.019531 11.050781 56.019531 11.050781 56.09375 C 11.050781 56.09375 10.902344 56.464844 10.902344 56.464844 C 10.902344 56.464844 10.753906 56.765625 10.753906 56.839844 C 10.753906 56.839844 10.675781 56.914062 10.675781 56.914062 C 10.675781 56.988281 10.675781 56.988281 10.675781 56.988281 C 10.601562 57.0625 10.304688 57.363281 10.304688 57.585938 C 10.304688 57.734375 10.601562 57.882812 10.601562 58.109375 C 10.601562 58.480469 10.003906 58.929688 9.929688 59.304688 C 9.855469 59.601562 10.003906 59.902344 9.929688 60.125 C 9.78125 60.347656 9.332031 60.347656 9.109375 60.574219 C 8.8125 60.945312 8.585938 61.84375 8.214844 61.992188 C 7.988281 62.140625 7.46875 61.691406 7.316406 61.765625 C 7.167969 61.765625 7.09375 61.917969 7.019531 61.917969 C 7.019531 61.917969 7.019531 61.917969 6.945312 61.917969 C 6.945312 61.917969 6.792969 61.992188 6.792969 61.992188 C 6.792969 61.992188 6.496094 62.066406 6.347656 62.066406 C 6.273438 62.140625 5.972656 62.140625 5.972656 62.140625 C 5.972656 62.140625 5.675781 62.140625 5.601562 62.140625 C 5.449219 62.140625 5.152344 62.140625 5.152344 62.140625 C 5.152344 62.140625 4.929688 62.066406 4.777344 62.066406 C 4.628906 61.992188 4.40625 61.917969 4.40625 61.917969 C 4.40625 61.917969 4.105469 61.765625 4.03125 61.691406 C 3.957031 61.691406 3.882812 61.617188 3.808594 61.617188 C 3.808594 61.617188 3.734375 61.617188 3.734375 61.617188 C 3.734375 61.617188 3.507812 61.542969 3.359375 61.542969 C 3.210938 61.46875 2.988281 61.46875 2.988281 61.46875 C 2.988281 61.46875 2.6875 61.320312 2.613281 61.246094 C 2.464844 61.167969 2.238281 61.09375 2.238281 61.09375 C 2.238281 61.09375 2.015625 60.945312 1.941406 60.796875 C 1.792969 60.722656 1.644531 60.574219 1.644531 60.574219 C 1.566406 60.574219 1.417969 60.273438 1.34375 60.273438 C 1.34375 60.199219 1.046875 59.976562 1.046875 59.976562 C 1.046875 59.976562 0.894531 59.75 0.820312 59.601562 C 0.746094 59.527344 0.597656 59.304688 0.597656 59.304688 C 0.597656 59.304688 0.597656 59.152344 0.523438 59.078125 C 0.449219 59.003906 0 58.855469 0 58.855469 M 10.753906 56.839844 C 10.902344 56.464844 10.902344 56.464844 10.902344 56.464844 C 10.902344 56.390625 10.976562 56.242188 10.976562 56.242188 C 10.976562 56.242188 10.753906 56.839844 10.753906 56.839844 " clip-rule="nonzero"/></clipPath><mask id="fde248116c"><g filter="url(#805a00412e)"><rect x="-11.25" width="135" fill="#000000" y="-7.5" height="89.999996" fill-opacity="0.01"/></g></mask><clipPath id="50d3b9ce8f"><path d="M 0 0.667969 L 11.171875 0.667969 L 11.171875 12.15625 L 0 12.15625 Z M 0 0.667969 " clip-rule="nonzero"/></clipPath><clipPath id="39f99713fb"><path d="M 0 8.855469 C 0.222656 4.824219 0.449219 4.824219 0.523438 4.671875 C 0.597656 4.523438 0.597656 4.300781 0.597656 4.300781 C 0.597656 4.300781 0.746094 4.078125 0.746094 3.925781 C 0.820312 3.777344 0.96875 3.554688 0.96875 3.554688 C 0.96875 3.554688 1.046875 3.480469 1.121094 3.40625 C 1.121094 3.328125 1.195312 3.253906 1.195312 3.179688 C 1.269531 3.03125 1.34375 2.808594 1.34375 2.808594 C 1.34375 2.730469 1.492188 2.582031 1.566406 2.433594 C 1.644531 2.285156 1.792969 2.058594 1.792969 2.058594 C 1.792969 2.058594 1.941406 1.910156 2.089844 1.835938 C 2.164062 1.6875 2.316406 1.539062 2.390625 1.539062 C 2.390625 1.539062 2.613281 1.386719 2.6875 1.3125 C 2.835938 1.238281 3.0625 1.164062 3.0625 1.164062 C 3.0625 1.164062 3.285156 1.089844 3.433594 1.015625 C 3.585938 1.015625 3.808594 0.941406 3.808594 0.941406 C 3.882812 0.941406 4.105469 0.941406 4.179688 0.941406 C 4.179688 0.941406 4.179688 0.867188 4.257812 0.867188 C 4.257812 0.867188 4.332031 0.867188 4.332031 0.867188 C 4.332031 0.867188 4.554688 0.789062 4.703125 0.789062 C 4.851562 0.789062 5.078125 0.714844 5.078125 0.714844 C 5.078125 0.714844 5.375 0.789062 5.527344 0.789062 C 5.675781 0.789062 5.898438 0.789062 5.898438 0.789062 C 5.898438 0.789062 6.199219 0.867188 6.273438 0.941406 C 6.421875 1.015625 6.644531 1.089844 6.644531 1.089844 C 6.644531 1.089844 6.871094 1.238281 7.019531 1.3125 C 7.09375 1.386719 7.316406 1.539062 7.390625 1.539062 C 7.390625 1.539062 7.542969 1.761719 7.617188 1.835938 C 7.691406 1.835938 7.691406 1.910156 7.765625 1.910156 C 7.839844 1.984375 8.140625 1.910156 8.140625 1.910156 C 8.140625 1.910156 8.214844 1.910156 8.214844 1.910156 C 8.289062 1.910156 8.289062 1.984375 8.363281 1.984375 C 8.4375 1.984375 8.4375 1.984375 8.511719 2.058594 C 8.660156 2.058594 8.960938 2.136719 8.960938 2.136719 C 8.960938 2.136719 9.109375 2.210938 9.109375 2.210938 C 9.183594 2.210938 9.257812 2.210938 9.257812 2.285156 C 9.332031 2.285156 9.332031 2.359375 9.40625 2.359375 C 9.484375 2.433594 9.632812 2.507812 9.632812 2.507812 C 9.632812 2.507812 9.929688 2.730469 9.929688 2.730469 C 10.003906 2.808594 10.003906 2.808594 10.003906 2.808594 C 10.082031 2.808594 10.15625 2.882812 10.15625 2.882812 C 10.15625 2.957031 10.15625 2.957031 10.230469 2.957031 C 10.230469 2.957031 10.230469 3.03125 10.304688 3.03125 C 10.304688 3.03125 10.453125 3.253906 10.527344 3.328125 C 10.601562 3.480469 10.753906 3.703125 10.753906 3.703125 C 10.753906 3.703125 10.753906 3.703125 10.753906 3.777344 C 10.828125 3.851562 10.828125 3.925781 10.828125 3.925781 C 10.828125 4 10.828125 4 10.902344 4.078125 C 10.902344 4.152344 11.050781 4.449219 11.050781 4.449219 C 11.050781 4.449219 11.050781 4.597656 11.050781 4.671875 C 11.050781 4.75 11.125 4.75 11.125 4.824219 C 11.125 4.898438 11.125 4.898438 11.125 4.972656 C 11.125 5.046875 11.125 5.269531 11.125 5.269531 C 11.125 5.269531 11.125 5.570312 11.050781 5.644531 C 11.050781 5.71875 11.050781 5.71875 11.050781 5.71875 C 11.050781 5.792969 11.050781 5.867188 11.050781 5.941406 C 11.050781 6.019531 11.050781 6.019531 11.050781 6.09375 C 11.050781 6.09375 10.902344 6.464844 10.902344 6.464844 C 10.902344 6.464844 10.753906 6.765625 10.753906 6.839844 C 10.753906 6.839844 10.675781 6.914062 10.675781 6.914062 C 10.675781 6.988281 10.675781 6.988281 10.675781 6.988281 C 10.601562 7.0625 10.304688 7.363281 10.304688 7.585938 C 10.304688 7.734375 10.601562 7.882812 10.601562 8.109375 C 10.601562 8.480469 10.003906 8.929688 9.929688 9.304688 C 9.855469 9.601562 10.003906 9.902344 9.929688 10.125 C 9.78125 10.347656 9.332031 10.347656 9.109375 10.574219 C 8.8125 10.945312 8.585938 11.84375 8.214844 11.992188 C 7.988281 12.140625 7.46875 11.691406 7.316406 11.765625 C 7.167969 11.765625 7.09375 11.917969 7.019531 11.917969 C 7.019531 11.917969 7.019531 11.917969 6.945312 11.917969 C 6.945312 11.917969 6.792969 11.992188 6.792969 11.992188 C 6.792969 11.992188 6.496094 12.066406 6.347656 12.066406 C 6.273438 12.140625 5.972656 12.140625 5.972656 12.140625 C 5.972656 12.140625 5.675781 12.140625 5.601562 12.140625 C 5.449219 12.140625 5.152344 12.140625 5.152344 12.140625 C 5.152344 12.140625 4.929688 12.066406 4.777344 12.066406 C 4.628906 11.992188 4.40625 11.917969 4.40625 11.917969 C 4.40625 11.917969 4.105469 11.765625 4.03125 11.691406 C 3.957031 11.691406 3.882812 11.617188 3.808594 11.617188 C 3.808594 11.617188 3.734375 11.617188 3.734375 11.617188 C 3.734375 11.617188 3.507812 11.542969 3.359375 11.542969 C 3.210938 11.46875 2.988281 11.46875 2.988281 11.46875 C 2.988281 11.46875 2.6875 11.320312 2.613281 11.246094 C 2.464844 11.167969 2.238281 11.09375 2.238281 11.09375 C 2.238281 11.09375 2.015625 10.945312 1.941406 10.796875 C 1.792969 10.722656 1.644531 10.574219 1.644531 10.574219 C 1.566406 10.574219 1.417969 10.273438 1.34375 10.273438 C 1.34375 10.199219 1.046875 9.976562 1.046875 9.976562 C 1.046875 9.976562 0.894531 9.75 0.820312 9.601562 C 0.746094 9.527344 0.597656 9.304688 0.597656 9.304688 C 0.597656 9.304688 0.597656 9.152344 0.523438 9.078125 C 0.449219 9.003906 0 8.855469 0 8.855469 M 10.753906 6.839844 C 10.902344 6.464844 10.902344 6.464844 10.902344 6.464844 C 10.902344 6.390625 10.976562 6.242188 10.976562 6.242188 C 10.976562 6.242188 10.753906 6.839844 10.753906 6.839844 " clip-rule="nonzero"/></clipPath><clipPath id="4a70bd1429"><rect x="0" width="12" y="0" height="13"/></clipPath><clipPath id="8e9f91af4d"><path d="M 5 45.335938 L 17.257812 45.335938 L 17.257812 62.414062 L 5 62.414062 Z M 5 45.335938 " clip-rule="nonzero"/></clipPath><clipPath id="84d4f573f5"><path d="M 15.230469 57.882812 C 12.84375 62.363281 11.871094 62.515625 11.199219 62.363281 C 10.453125 62.289062 9.558594 61.84375 9.109375 61.246094 C 8.585938 60.648438 8.214844 59.75 8.289062 59.003906 C 8.4375 58.035156 10.527344 56.539062 10.304688 56.019531 C 10.15625 55.570312 8.8125 55.792969 8.585938 55.496094 C 8.4375 55.269531 8.511719 54.972656 8.660156 54.671875 C 8.960938 54.078125 9.929688 52.65625 10.753906 52.359375 C 11.5 51.984375 12.46875 52.058594 13.140625 52.359375 C 13.8125 52.582031 14.558594 53.105469 14.933594 53.925781 C 15.53125 55.121094 15.605469 57.960938 15.382812 59.078125 C 15.230469 59.75 15.007812 60.125 14.636719 60.574219 C 14.1875 61.019531 13.214844 61.542969 12.542969 61.691406 C 12.023438 61.765625 11.5 61.765625 10.976562 61.542969 C 10.304688 61.246094 9.558594 60.796875 9.183594 59.976562 C 8.511719 58.707031 8.214844 55.34375 8.8125 53.925781 C 9.183594 52.957031 10.230469 52.136719 11.050781 51.835938 C 11.796875 51.539062 12.769531 51.6875 13.441406 51.984375 C 14.113281 52.359375 14.785156 52.882812 15.082031 53.777344 C 15.457031 55.121094 14.710938 58.632812 14.039062 60.050781 C 13.664062 60.871094 12.992188 61.46875 12.46875 61.84375 C 11.945312 62.066406 11.425781 62.214844 10.902344 62.140625 C 10.378906 62.140625 9.78125 62.066406 9.332031 61.765625 C 8.734375 61.394531 7.988281 60.648438 7.765625 59.976562 C 7.542969 59.226562 7.617188 58.40625 7.765625 57.585938 C 7.988281 56.539062 8.511719 55.046875 9.257812 54.226562 C 10.003906 53.40625 11.125 52.730469 12.023438 52.730469 C 12.917969 52.65625 14.261719 53.328125 14.785156 54.152344 C 15.382812 54.898438 15.53125 56.242188 15.230469 57.210938 C 14.933594 58.257812 13.738281 59.453125 12.84375 60.199219 C 11.945312 60.945312 10.902344 61.691406 9.855469 61.84375 C 8.886719 61.917969 7.46875 61.542969 6.792969 60.945312 C 6.199219 60.421875 5.824219 59.601562 5.824219 58.78125 C 5.824219 57.882812 6.496094 56.539062 7.019531 55.941406 C 7.46875 55.496094 7.988281 55.121094 8.511719 55.269531 C 9.257812 55.421875 10.828125 57.511719 10.828125 58.332031 C 10.753906 58.929688 10.003906 59.601562 9.40625 59.824219 C 8.585938 60.050781 7.019531 59.75 6.347656 59.226562 C 5.675781 58.78125 5.226562 57.882812 5.078125 57.210938 C 5.003906 56.464844 5.078125 55.644531 5.527344 54.824219 C 6.199219 53.703125 8.511719 51.089844 9.40625 51.3125 C 10.230469 51.539062 11.347656 54.449219 10.902344 55.269531 C 10.453125 56.09375 7.46875 56.613281 6.496094 56.167969 C 5.824219 55.867188 5.375 54.898438 5.226562 54.152344 C 5.078125 53.40625 5.300781 52.433594 5.675781 51.761719 C 6.046875 51.164062 6.792969 50.492188 7.542969 50.269531 C 8.363281 50.042969 10.601562 50.714844 10.601562 50.867188 C 10.601562 50.941406 6.570312 51.238281 6.421875 50.867188 C 6.273438 50.492188 8.585938 48.402344 9.40625 48.550781 C 10.15625 48.773438 11.050781 51.015625 11.125 52.058594 C 11.125 52.882812 10.675781 53.925781 10.082031 54.300781 C 9.558594 54.75 8.4375 54.597656 7.765625 54.375 C 7.019531 54.152344 6.273438 53.480469 5.898438 52.808594 C 5.601562 52.210938 5.449219 51.164062 5.601562 50.492188 C 5.75 49.746094 6.199219 49.148438 6.945312 48.476562 C 8.0625 47.429688 11.050781 45.863281 12.695312 45.5625 C 13.8125 45.414062 15.007812 45.5625 15.753906 46.011719 C 16.425781 46.460938 16.949219 47.28125 17.097656 48.027344 C 17.25 48.699219 17.25 49.597656 16.800781 50.34375 C 15.90625 51.761719 12.171875 53.925781 10.527344 54.449219 C 9.558594 54.75 8.8125 54.671875 8.140625 54.523438 C 7.542969 54.375 7.09375 54 6.792969 53.628906 C 6.421875 53.253906 6.046875 52.808594 5.972656 52.285156 C 5.824219 51.613281 5.675781 50.640625 6.121094 49.894531 C 7.019531 48.476562 11.273438 46.085938 12.769531 45.714844 C 13.441406 45.488281 13.8125 45.488281 14.335938 45.640625 C 15.007812 45.863281 15.90625 46.386719 16.351562 46.984375 C 16.726562 47.582031 16.949219 48.625 16.949219 49.296875 C 16.875 49.894531 16.652344 50.417969 16.351562 50.789062 C 16.054688 51.238281 15.230469 51.984375 15.15625 51.910156 C 15.007812 51.761719 17.023438 48.699219 16.949219 48.625 C 16.875 48.625 15.15625 52.058594 14.335938 52.359375 C 13.886719 52.507812 13.289062 51.6875 12.917969 51.835938 C 12.46875 52.058594 12.46875 53.480469 11.945312 54 C 11.425781 54.523438 10.527344 54.972656 9.78125 55.046875 C 9.035156 55.046875 8.140625 54.75 7.542969 54.300781 C 6.945312 53.851562 6.273438 53.105469 6.273438 52.285156 C 6.199219 51.238281 7.316406 49.523438 8.363281 48.476562 C 9.484375 47.355469 11.722656 46.085938 12.992188 46.011719 C 13.886719 45.9375 14.710938 46.386719 15.230469 46.757812 C 15.679688 47.058594 16.054688 47.503906 16.203125 48.027344 C 16.425781 48.847656 16.5 50.269531 15.90625 51.164062 C 15.230469 52.359375 13.066406 53.925781 11.796875 54.152344 C 10.753906 54.226562 9.484375 53.628906 8.8125 53.03125 C 8.289062 52.507812 8.0625 51.6875 7.988281 51.015625 C 7.914062 50.34375 8.0625 49.523438 8.511719 48.925781 C 9.109375 48.253906 10.378906 47.429688 11.273438 47.429688 C 12.246094 47.429688 13.589844 48.101562 14.113281 48.847656 C 14.636719 49.597656 14.710938 51.164062 14.484375 51.984375 C 14.261719 52.65625 13.664062 53.253906 13.140625 53.628906 C 12.542969 54 11.722656 54.226562 11.050781 54.152344 C 10.15625 54 8.886719 53.105469 8.4375 52.433594 C 7.988281 51.835938 7.914062 50.941406 7.988281 50.269531 C 8.140625 49.597656 8.4375 49 9.035156 48.402344 C 9.855469 47.503906 11.871094 46.085938 12.992188 46.011719 C 13.8125 45.863281 14.710938 46.3125 15.230469 46.757812 C 15.828125 47.207031 16.351562 48.101562 16.425781 48.847656 C 16.578125 49.597656 16.425781 50.640625 15.90625 51.164062 C 15.382812 51.761719 13.441406 51.3125 12.917969 51.835938 C 12.542969 52.210938 12.769531 52.882812 12.46875 53.328125 C 12.097656 53.925781 11.347656 54.671875 10.601562 54.824219 C 9.707031 55.046875 8.289062 54.824219 7.542969 54.300781 C 6.871094 53.925781 6.273438 53.105469 6.273438 52.285156 C 6.199219 51.164062 7.46875 49.148438 8.511719 48.101562 C 9.332031 47.132812 11.347656 45.9375 11.648438 46.160156 C 11.871094 46.386719 10.15625 49.222656 10.230469 49.296875 C 10.378906 49.371094 11.871094 46.160156 12.769531 45.714844 C 13.289062 45.414062 13.8125 45.488281 14.335938 45.640625 C 15.007812 45.863281 15.90625 46.460938 16.351562 46.984375 C 16.652344 47.429688 16.875 47.953125 16.949219 48.476562 C 16.949219 49.148438 16.949219 50.042969 16.351562 50.789062 C 15.382812 52.136719 11.199219 54.300781 9.707031 54.671875 C 9.035156 54.824219 8.660156 54.75 8.140625 54.523438 C 7.46875 54.226562 6.644531 53.554688 6.273438 53.03125 C 5.972656 52.507812 5.824219 52.058594 5.824219 51.464844 C 5.824219 50.789062 5.972656 49.96875 6.570312 49.222656 C 7.617188 47.953125 11.273438 46.085938 12.695312 45.5625 C 13.367188 45.339844 13.738281 45.339844 14.261719 45.414062 C 14.933594 45.5625 15.90625 46.011719 16.351562 46.535156 C 16.875 47.132812 17.171875 48.027344 17.171875 48.773438 C 17.171875 49.523438 16.949219 50.34375 16.277344 51.015625 C 15.230469 52.210938 11.722656 53.925781 10.082031 54.300781 C 9.183594 54.597656 8.363281 54.597656 7.765625 54.375 C 7.167969 54.226562 6.71875 53.851562 6.421875 53.480469 C 6.046875 53.105469 5.75 52.65625 5.601562 52.058594 C 5.449219 51.386719 5.449219 50.417969 5.898438 49.671875 C 6.347656 48.847656 7.617188 47.953125 8.734375 47.355469 C 9.929688 46.757812 11.796875 46.085938 13.066406 46.386719 C 14.261719 46.683594 15.90625 48.027344 16.128906 49.222656 C 16.425781 50.417969 15.007812 52.433594 14.113281 53.480469 C 13.367188 54.375 12.46875 54.972656 11.347656 55.421875 C 10.003906 55.941406 7.46875 56.691406 6.496094 56.167969 C 5.675781 55.71875 5.152344 54.226562 5.152344 53.328125 C 5.152344 52.582031 5.675781 51.6875 6.121094 51.164062 C 6.496094 50.714844 6.945312 50.417969 7.542969 50.269531 C 8.289062 50.117188 10.453125 51.015625 10.601562 50.867188 C 10.675781 50.714844 9.40625 50.042969 9.484375 49.820312 C 9.558594 49.523438 12.617188 49.597656 13.589844 50.269531 C 14.484375 50.867188 15.308594 52.359375 15.308594 53.480469 C 15.230469 54.75 13.964844 56.316406 12.917969 57.363281 C 11.796875 58.480469 9.707031 59.75 8.585938 59.976562 C 7.988281 60.050781 7.542969 59.902344 7.019531 59.675781 C 6.421875 59.304688 5.675781 58.554688 5.375 57.960938 C 5.078125 57.4375 5.003906 56.914062 5.078125 56.390625 C 5.152344 55.71875 5.527344 54.75 6.046875 54.226562 C 6.496094 53.628906 7.167969 53.328125 7.914062 53.03125 C 8.886719 52.730469 10.378906 52.210938 11.347656 52.582031 C 12.46875 53.03125 13.964844 54.898438 14.113281 56.09375 C 14.1875 57.210938 13.140625 58.554688 12.394531 59.527344 C 11.648438 60.496094 10.675781 61.617188 9.78125 61.84375 C 9.035156 62.066406 8.0625 61.84375 7.46875 61.46875 C 6.792969 61.09375 6.199219 60.273438 5.972656 59.601562 C 5.75 58.855469 5.675781 58.035156 6.046875 57.210938 C 6.644531 55.941406 9.332031 53.777344 10.453125 53.105469 C 11.050781 52.808594 11.5 52.65625 12.023438 52.730469 C 12.695312 52.730469 13.738281 53.03125 14.261719 53.554688 C 14.859375 54 15.308594 54.972656 15.382812 55.644531 C 15.53125 56.167969 15.457031 56.539062 15.230469 57.210938 C 14.859375 58.40625 13.367188 61.09375 12.46875 61.84375 C 11.945312 62.214844 11.425781 62.214844 10.902344 62.140625 C 10.15625 62.140625 9.183594 61.84375 8.660156 61.320312 C 8.0625 60.648438 7.617188 59.453125 7.617188 58.332031 C 7.542969 57.0625 8.214844 55.046875 8.8125 53.925781 C 9.183594 53.179688 9.632812 52.507812 10.304688 52.136719 C 10.976562 51.761719 11.945312 51.613281 12.695312 51.761719 C 13.367188 51.910156 14.1875 52.285156 14.636719 53.03125 C 15.382812 54.226562 15.679688 57.660156 15.382812 59.078125 C 15.15625 59.976562 14.558594 60.648438 14.039062 61.09375 C 13.589844 61.46875 13.140625 61.617188 12.542969 61.691406 C 11.871094 61.765625 10.828125 61.46875 10.230469 61.167969 C 9.78125 60.871094 9.40625 60.574219 9.183594 59.976562 C 8.660156 58.855469 8.214844 56.019531 8.660156 54.671875 C 9.035156 53.628906 10.003906 52.730469 10.753906 52.359375 C 11.273438 52.058594 11.796875 52.058594 12.394531 52.136719 C 13.066406 52.285156 13.964844 52.808594 14.484375 53.253906 C 14.859375 53.628906 15.082031 54.078125 15.230469 54.671875 C 15.457031 55.644531 15.457031 57.4375 15.15625 58.707031 C 14.785156 59.902344 13.140625 62.066406 13.140625 62.066406 C 13.140625 62.066406 14.859375 59.078125 15.007812 59.152344 C 15.082031 59.152344 14.859375 60.199219 14.558594 60.722656 C 14.1875 61.246094 13.441406 61.992188 12.769531 62.214844 C 12.097656 62.515625 11.050781 62.4375 10.378906 62.214844 C 9.855469 61.992188 9.40625 61.765625 9.109375 61.246094 C 8.585938 60.347656 8.289062 58.183594 8.511719 56.914062 C 8.734375 55.941406 9.40625 54.824219 10.082031 54.300781 C 10.527344 53.925781 10.976562 53.777344 11.574219 53.703125 C 12.246094 53.703125 13.289062 53.851562 13.886719 54.300781 C 14.484375 54.75 15.007812 55.644531 15.230469 56.242188 C 15.382812 56.839844 15.230469 57.882812 15.230469 57.882812 " clip-rule="nonzero"/></clipPath><mask id="9db350a806"><g filter="url(#805a00412e)"><rect x="-11.25" width="135" fill="#000000" y="-7.5" height="89.999996" fill-opacity="0.01"/></g></mask><clipPath id="4bbb09c47c"><path d="M 0 0.335938 L 12.257812 0.335938 L 12.257812 17.414062 L 0 17.414062 Z M 0 0.335938 " clip-rule="nonzero"/></clipPath><clipPath id="790ff6e3cb"><path d="M 10.230469 12.882812 C 7.84375 17.363281 6.871094 17.515625 6.199219 17.363281 C 5.453125 17.289062 4.558594 16.84375 4.109375 16.246094 C 3.585938 15.648438 3.214844 14.75 3.289062 14.003906 C 3.4375 13.035156 5.527344 11.539062 5.304688 11.019531 C 5.15625 10.570312 3.8125 10.792969 3.585938 10.496094 C 3.4375 10.269531 3.511719 9.972656 3.660156 9.671875 C 3.960938 9.078125 4.929688 7.65625 5.753906 7.359375 C 6.5 6.984375 7.46875 7.058594 8.140625 7.359375 C 8.8125 7.582031 9.558594 8.105469 9.933594 8.925781 C 10.53125 10.121094 10.605469 12.960938 10.382812 14.078125 C 10.230469 14.75 10.007812 15.125 9.636719 15.574219 C 9.1875 16.019531 8.214844 16.542969 7.542969 16.691406 C 7.023438 16.765625 6.5 16.765625 5.976562 16.542969 C 5.304688 16.246094 4.558594 15.796875 4.183594 14.976562 C 3.511719 13.707031 3.214844 10.34375 3.8125 8.925781 C 4.183594 7.957031 5.230469 7.136719 6.050781 6.835938 C 6.796875 6.539062 7.769531 6.6875 8.441406 6.984375 C 9.113281 7.359375 9.785156 7.882812 10.082031 8.777344 C 10.457031 10.121094 9.710938 13.632812 9.039062 15.050781 C 8.664062 15.871094 7.992188 16.46875 7.46875 16.84375 C 6.945312 17.066406 6.425781 17.214844 5.902344 17.140625 C 5.378906 17.140625 4.78125 17.066406 4.332031 16.765625 C 3.734375 16.394531 2.988281 15.648438 2.765625 14.976562 C 2.542969 14.226562 2.617188 13.40625 2.765625 12.585938 C 2.988281 11.539062 3.511719 10.046875 4.257812 9.226562 C 5.003906 8.40625 6.125 7.730469 7.023438 7.730469 C 7.917969 7.65625 9.261719 8.328125 9.785156 9.152344 C 10.382812 9.898438 10.53125 11.242188 10.230469 12.210938 C 9.933594 13.257812 8.738281 14.453125 7.84375 15.199219 C 6.945312 15.945312 5.902344 16.691406 4.855469 16.84375 C 3.886719 16.917969 2.46875 16.542969 1.792969 15.945312 C 1.199219 15.421875 0.824219 14.601562 0.824219 13.78125 C 0.824219 12.882812 1.496094 11.539062 2.019531 10.941406 C 2.46875 10.496094 2.988281 10.121094 3.511719 10.269531 C 4.257812 10.421875 5.828125 12.511719 5.828125 13.332031 C 5.753906 13.929688 5.003906 14.601562 4.40625 14.824219 C 3.585938 15.050781 2.019531 14.75 1.347656 14.226562 C 0.675781 13.78125 0.226562 12.882812 0.078125 12.210938 C 0.00390625 11.464844 0.078125 10.644531 0.527344 9.824219 C 1.199219 8.703125 3.511719 6.089844 4.40625 6.3125 C 5.230469 6.539062 6.347656 9.449219 5.902344 10.269531 C 5.453125 11.09375 2.46875 11.613281 1.496094 11.167969 C 0.824219 10.867188 0.375 9.898438 0.226562 9.152344 C 0.078125 8.40625 0.300781 7.433594 0.675781 6.761719 C 1.046875 6.164062 1.792969 5.492188 2.542969 5.269531 C 3.363281 5.042969 5.601562 5.714844 5.601562 5.867188 C 5.601562 5.941406 1.570312 6.238281 1.421875 5.867188 C 1.273438 5.492188 3.585938 3.402344 4.40625 3.550781 C 5.15625 3.773438 6.050781 6.015625 6.125 7.058594 C 6.125 7.882812 5.675781 8.925781 5.082031 9.300781 C 4.558594 9.75 3.4375 9.597656 2.765625 9.375 C 2.019531 9.152344 1.273438 8.480469 0.898438 7.808594 C 0.601562 7.210938 0.449219 6.164062 0.601562 5.492188 C 0.75 4.746094 1.199219 4.148438 1.945312 3.476562 C 3.0625 2.429688 6.050781 0.863281 7.695312 0.5625 C 8.8125 0.414062 10.007812 0.5625 10.753906 1.011719 C 11.425781 1.460938 11.949219 2.28125 12.097656 3.027344 C 12.25 3.699219 12.25 4.597656 11.800781 5.34375 C 10.90625 6.761719 7.171875 8.925781 5.527344 9.449219 C 4.558594 9.75 3.8125 9.671875 3.140625 9.523438 C 2.542969 9.375 2.09375 9 1.792969 8.628906 C 1.421875 8.253906 1.046875 7.808594 0.972656 7.285156 C 0.824219 6.613281 0.675781 5.640625 1.121094 4.894531 C 2.019531 3.476562 6.273438 1.085938 7.769531 0.714844 C 8.441406 0.488281 8.8125 0.488281 9.335938 0.640625 C 10.007812 0.863281 10.90625 1.386719 11.351562 1.984375 C 11.726562 2.582031 11.949219 3.625 11.949219 4.296875 C 11.875 4.894531 11.652344 5.417969 11.351562 5.789062 C 11.054688 6.238281 10.230469 6.984375 10.15625 6.910156 C 10.007812 6.761719 12.023438 3.699219 11.949219 3.625 C 11.875 3.625 10.15625 7.058594 9.335938 7.359375 C 8.886719 7.507812 8.289062 6.6875 7.917969 6.835938 C 7.46875 7.058594 7.46875 8.480469 6.945312 9 C 6.425781 9.523438 5.527344 9.972656 4.78125 10.046875 C 4.035156 10.046875 3.140625 9.75 2.542969 9.300781 C 1.945312 8.851562 1.273438 8.105469 1.273438 7.285156 C 1.199219 6.238281 2.316406 4.523438 3.363281 3.476562 C 4.484375 2.355469 6.722656 1.085938 7.992188 1.011719 C 8.886719 0.9375 9.710938 1.386719 10.230469 1.757812 C 10.679688 2.058594 11.054688 2.503906 11.203125 3.027344 C 11.425781 3.847656 11.5 5.269531 10.90625 6.164062 C 10.230469 7.359375 8.066406 8.925781 6.796875 9.152344 C 5.753906 9.226562 4.484375 8.628906 3.8125 8.03125 C 3.289062 7.507812 3.0625 6.6875 2.988281 6.015625 C 2.914062 5.34375 3.0625 4.523438 3.511719 3.925781 C 4.109375 3.253906 5.378906 2.429688 6.273438 2.429688 C 7.246094 2.429688 8.589844 3.101562 9.113281 3.847656 C 9.636719 4.597656 9.710938 6.164062 9.484375 6.984375 C 9.261719 7.65625 8.664062 8.253906 8.140625 8.628906 C 7.542969 9 6.722656 9.226562 6.050781 9.152344 C 5.15625 9 3.886719 8.105469 3.4375 7.433594 C 2.988281 6.835938 2.914062 5.941406 2.988281 5.269531 C 3.140625 4.597656 3.4375 4 4.035156 3.402344 C 4.855469 2.503906 6.871094 1.085938 7.992188 1.011719 C 8.8125 0.863281 9.710938 1.3125 10.230469 1.757812 C 10.828125 2.207031 11.351562 3.101562 11.425781 3.847656 C 11.578125 4.597656 11.425781 5.640625 10.90625 6.164062 C 10.382812 6.761719 8.441406 6.3125 7.917969 6.835938 C 7.542969 7.210938 7.769531 7.882812 7.46875 8.328125 C 7.097656 8.925781 6.347656 9.671875 5.601562 9.824219 C 4.707031 10.046875 3.289062 9.824219 2.542969 9.300781 C 1.871094 8.925781 1.273438 8.105469 1.273438 7.285156 C 1.199219 6.164062 2.46875 4.148438 3.511719 3.101562 C 4.332031 2.132812 6.347656 0.9375 6.648438 1.160156 C 6.871094 1.386719 5.15625 4.222656 5.230469 4.296875 C 5.378906 4.371094 6.871094 1.160156 7.769531 0.714844 C 8.289062 0.414062 8.8125 0.488281 9.335938 0.640625 C 10.007812 0.863281 10.90625 1.460938 11.351562 1.984375 C 11.652344 2.429688 11.875 2.953125 11.949219 3.476562 C 11.949219 4.148438 11.949219 5.042969 11.351562 5.789062 C 10.382812 7.136719 6.199219 9.300781 4.707031 9.671875 C 4.035156 9.824219 3.660156 9.75 3.140625 9.523438 C 2.46875 9.226562 1.644531 8.554688 1.273438 8.03125 C 0.972656 7.507812 0.824219 7.058594 0.824219 6.464844 C 0.824219 5.789062 0.972656 4.96875 1.570312 4.222656 C 2.617188 2.953125 6.273438 1.085938 7.695312 0.5625 C 8.367188 0.339844 8.738281 0.339844 9.261719 0.414062 C 9.933594 0.5625 10.90625 1.011719 11.351562 1.535156 C 11.875 2.132812 12.171875 3.027344 12.171875 3.773438 C 12.171875 4.523438 11.949219 5.34375 11.277344 6.015625 C 10.230469 7.210938 6.722656 8.925781 5.082031 9.300781 C 4.183594 9.597656 3.363281 9.597656 2.765625 9.375 C 2.167969 9.226562 1.71875 8.851562 1.421875 8.480469 C 1.046875 8.105469 0.75 7.65625 0.601562 7.058594 C 0.449219 6.386719 0.449219 5.417969 0.898438 4.671875 C 1.347656 3.847656 2.617188 2.953125 3.734375 2.355469 C 4.929688 1.757812 6.796875 1.085938 8.066406 1.386719 C 9.261719 1.683594 10.90625 3.027344 11.128906 4.222656 C 11.425781 5.417969 10.007812 7.433594 9.113281 8.480469 C 8.367188 9.375 7.46875 9.972656 6.347656 10.421875 C 5.003906 10.941406 2.46875 11.691406 1.496094 11.167969 C 0.675781 10.71875 0.152344 9.226562 0.152344 8.328125 C 0.152344 7.582031 0.675781 6.6875 1.121094 6.164062 C 1.496094 5.714844 1.945312 5.417969 2.542969 5.269531 C 3.289062 5.117188 5.453125 6.015625 5.601562 5.867188 C 5.675781 5.714844 4.40625 5.042969 4.484375 4.820312 C 4.558594 4.523438 7.617188 4.597656 8.589844 5.269531 C 9.484375 5.867188 10.308594 7.359375 10.308594 8.480469 C 10.230469 9.75 8.964844 11.316406 7.917969 12.363281 C 6.796875 13.480469 4.707031 14.75 3.585938 14.976562 C 2.988281 15.050781 2.542969 14.902344 2.019531 14.675781 C 1.421875 14.304688 0.675781 13.554688 0.375 12.960938 C 0.078125 12.4375 0.00390625 11.914062 0.078125 11.390625 C 0.152344 10.71875 0.527344 9.75 1.046875 9.226562 C 1.496094 8.628906 2.167969 8.328125 2.914062 8.03125 C 3.886719 7.730469 5.378906 7.210938 6.347656 7.582031 C 7.46875 8.03125 8.964844 9.898438 9.113281 11.09375 C 9.1875 12.210938 8.140625 13.554688 7.394531 14.527344 C 6.648438 15.496094 5.675781 16.617188 4.78125 16.84375 C 4.035156 17.066406 3.0625 16.84375 2.46875 16.46875 C 1.792969 16.09375 1.199219 15.273438 0.972656 14.601562 C 0.75 13.855469 0.675781 13.035156 1.046875 12.210938 C 1.644531 10.941406 4.332031 8.777344 5.453125 8.105469 C 6.050781 7.808594 6.5 7.65625 7.023438 7.730469 C 7.695312 7.730469 8.738281 8.03125 9.261719 8.554688 C 9.859375 9 10.308594 9.972656 10.382812 10.644531 C 10.53125 11.167969 10.457031 11.539062 10.230469 12.210938 C 9.859375 13.40625 8.367188 16.09375 7.46875 16.84375 C 6.945312 17.214844 6.425781 17.214844 5.902344 17.140625 C 5.15625 17.140625 4.183594 16.84375 3.660156 16.320312 C 3.0625 15.648438 2.617188 14.453125 2.617188 13.332031 C 2.542969 12.0625 3.214844 10.046875 3.8125 8.925781 C 4.183594 8.179688 4.632812 7.507812 5.304688 7.136719 C 5.976562 6.761719 6.945312 6.613281 7.695312 6.761719 C 8.367188 6.910156 9.1875 7.285156 9.636719 8.03125 C 10.382812 9.226562 10.679688 12.660156 10.382812 14.078125 C 10.15625 14.976562 9.558594 15.648438 9.039062 16.09375 C 8.589844 16.46875 8.140625 16.617188 7.542969 16.691406 C 6.871094 16.765625 5.828125 16.46875 5.230469 16.167969 C 4.78125 15.871094 4.40625 15.574219 4.183594 14.976562 C 3.660156 13.855469 3.214844 11.019531 3.660156 9.671875 C 4.035156 8.628906 5.003906 7.730469 5.753906 7.359375 C 6.273438 7.058594 6.796875 7.058594 7.394531 7.136719 C 8.066406 7.285156 8.964844 7.808594 9.484375 8.253906 C 9.859375 8.628906 10.082031 9.078125 10.230469 9.671875 C 10.457031 10.644531 10.457031 12.4375 10.15625 13.707031 C 9.785156 14.902344 8.140625 17.066406 8.140625 17.066406 C 8.140625 17.066406 9.859375 14.078125 10.007812 14.152344 C 10.082031 14.152344 9.859375 15.199219 9.558594 15.722656 C 9.1875 16.246094 8.441406 16.992188 7.769531 17.214844 C 7.097656 17.515625 6.050781 17.4375 5.378906 17.214844 C 4.855469 16.992188 4.40625 16.765625 4.109375 16.246094 C 3.585938 15.347656 3.289062 13.183594 3.511719 11.914062 C 3.734375 10.941406 4.40625 9.824219 5.082031 9.300781 C 5.527344 8.925781 5.976562 8.777344 6.574219 8.703125 C 7.246094 8.703125 8.289062 8.851562 8.886719 9.300781 C 9.484375 9.75 10.007812 10.644531 10.230469 11.242188 C 10.382812 11.839844 10.230469 12.882812 10.230469 12.882812 " clip-rule="nonzero"/></clipPath><clipPath id="ed48f5d67a"><rect x="0" width="13" y="0" height="18"/></clipPath><clipPath id="4279243306"><path d="M 2.238281 18.980469 L 11.207031 18.980469 L 11.207031 27.949219 L 2.238281 27.949219 Z M 2.238281 18.980469 " clip-rule="nonzero"/></clipPath><clipPath id="cba84319a3"><path d="M 6.722656 18.980469 C 4.246094 18.980469 2.238281 20.988281 2.238281 23.464844 C 2.238281 25.941406 4.246094 27.949219 6.722656 27.949219 C 9.199219 27.949219 11.207031 25.941406 11.207031 23.464844 C 11.207031 20.988281 9.199219 18.980469 6.722656 18.980469 Z M 6.722656 18.980469 " clip-rule="nonzero"/></clipPath><clipPath id="530996097b"><path d="M 15.347656 18.980469 L 24.3125 18.980469 L 24.3125 27.949219 L 15.347656 27.949219 Z M 15.347656 18.980469 " clip-rule="nonzero"/></clipPath><clipPath id="f2d657620f"><path d="M 19.828125 18.980469 C 17.351562 18.980469 15.347656 20.988281 15.347656 23.464844 C 15.347656 25.941406 17.351562 27.949219 19.828125 27.949219 C 22.304688 27.949219 24.3125 25.941406 24.3125 23.464844 C 24.3125 20.988281 22.304688 18.980469 19.828125 18.980469 Z M 19.828125 18.980469 " clip-rule="nonzero"/></clipPath><clipPath id="e2d1643263"><path d="M 28.792969 18.980469 L 37.757812 18.980469 L 37.757812 27.949219 L 28.792969 27.949219 Z M 28.792969 18.980469 " clip-rule="nonzero"/></clipPath><clipPath id="0c651df7d1"><path d="M 33.277344 18.980469 C 30.800781 18.980469 28.792969 20.988281 28.792969 23.464844 C 28.792969 25.941406 30.800781 27.949219 33.277344 27.949219 C 35.753906 27.949219 37.757812 25.941406 37.757812 23.464844 C 37.757812 20.988281 35.753906 18.980469 33.277344 18.980469 Z M 33.277344 18.980469 " clip-rule="nonzero"/></clipPath></defs><g clip-path="url(#6b452563c8)"><g clip-path="url(#8bba5e47f3)"><g mask="url(#343e6ce882)"><g transform="matrix(1, 0, 0, 1, 42, 69)"><g clip-path="url(#8f6dae3450)"><g clip-path="url(#cedebef309)"><g clip-path="url(#71ca46c79e)"><rect x="-66.75" width="162" fill="#000000" height="107.999996" y="-85.499999" fill-opacity="1"/></g></g></g></g></g></g></g><g clip-path="url(#56bc4e7f88)"><g clip-path="url(#24a1657b68)"><g mask="url(#b17e10fea7)"><g transform="matrix(1, 0, 0, 1, 3, 55)"><g clip-path="url(#b1651a81b4)"><g clip-path="url(#762d9e9540)"><g clip-path="url(#6c9b7275ef)"><rect x="-27.75" width="162" fill="#000000" height="107.999996" y="-71.499999" fill-opacity="1"/></g></g></g></g></g></g></g><g clip-path="url(#3825379f75)"><g clip-path="url(#7ce5059ce6)"><g mask="url(#d663f1b4aa)"><g transform="matrix(1, 0, 0, 1, 3, 55)"><g clip-path="url(#3c1c72085d)"><g clip-path="url(#ecbdbc21e5)"><g clip-path="url(#6f7caa422c)"><rect x="-27.75" width="162" fill="#000000" height="107.999996" y="-71.499999" fill-opacity="1"/></g></g></g></g></g></g></g><g clip-path="url(#d336506da7)"><g clip-path="url(#a965759076)"><g mask="url(#b2b379a3ff)"><g transform="matrix(1, 0, 0, 1, 1, 55)"><g clip-path="url(#f08ce8e9b5)"><g clip-path="url(#e58f8b0d1a)"><g clip-path="url(#d46d08a99f)"><rect x="-25.75" width="162" fill="#000000" height="107.999996" y="-71.499999" fill-opacity="1"/></g></g></g></g></g></g></g><g clip-path="url(#ff8ca92595)"><g clip-path="url(#a48f02ea32)"><g mask="url(#96a98ac819)"><g transform="matrix(1, 0, 0, 1, 20, 55)"><g clip-path="url(#5e51773295)"><g clip-path="url(#47f3c2f4a7)"><g clip-path="url(#322b51b304)"><rect x="-44.75" width="162" fill="#000000" height="107.999996" y="-71.499999" fill-opacity="1"/></g></g></g></g></g></g></g><g clip-path="url(#f968b53fb1)"><g clip-path="url(#d3775040e9)"><g mask="url(#e528503dde)"><g transform="matrix(1, 0, 0, 1, 27, 47)"><g clip-path="url(#6c2ae9c0c2)"><g clip-path="url(#9611b1e6fb)"><g clip-path="url(#4a418138bb)"><rect x="-51.75" width="162" fill="#000000" height="107.999996" y="-63.499999" fill-opacity="1"/></g></g></g></g></g></g></g><g clip-path="url(#af61cb9bf2)"><g clip-path="url(#e7a4d3c942)"><g mask="url(#fde248116c)"><g transform="matrix(1, 0, 0, 1, 0, 50)"><g clip-path="url(#4a70bd1429)"><g clip-path="url(#50d3b9ce8f)"><g clip-path="url(#39f99713fb)"><rect x="-24.75" width="162" fill="#000000" height="107.999996" y="-66.499999" fill-opacity="1"/></g></g></g></g></g></g></g><g clip-path="url(#8e9f91af4d)"><g clip-path="url(#84d4f573f5)"><g mask="url(#9db350a806)"><g transform="matrix(1, 0, 0, 1, 5, 45)"><g clip-path="url(#ed48f5d67a)"><g clip-path="url(#4bbb09c47c)"><g clip-path="url(#790ff6e3cb)"><rect x="-29.75" width="162" fill="#000000" height="107.999996" y="-61.499999" fill-opacity="1"/></g></g></g></g></g></g></g><g fill="#000000" fill-opacity="1"><g transform="translate(2.090708, 43.307257)"><g><path d="M 9.328125 0 L 7.8125 -3.875 L 2.9375 -3.875 L 1.4375 0 L 0 0 L 4.8125 -12.234375 L 6 -12.234375 L 10.796875 0 Z M 7.375 -5.15625 L 5.953125 -8.921875 C 5.773438 -9.398438 5.585938 -9.988281 5.390625 -10.6875 C 5.265625 -10.144531 5.085938 -9.554688 4.859375 -8.921875 L 3.4375 -5.15625 Z M 7.375 -5.15625 "/></g></g><g transform="translate(12.889442, 43.307257)"><g/></g><g transform="translate(17.322255, 43.307257)"><g><path d="M 1.671875 0 L 1.671875 -12.1875 L 3.09375 -12.1875 L 3.09375 -1.28125 L 8.46875 -1.28125 L 8.46875 0 Z M 1.671875 0 "/></g></g><g transform="translate(26.17955, 43.307257)"><g/></g><g transform="translate(30.612363, 43.307257)"><g><path d="M 1.671875 0 L 1.671875 -12.1875 L 3.09375 -12.1875 L 3.09375 -1.28125 L 8.46875 -1.28125 L 8.46875 0 Z M 1.671875 0 "/></g></g><g transform="translate(39.469658, 43.307257)"><g/></g><g transform="translate(43.902472, 43.307257)"><g><path d="M 1.671875 0 L 1.671875 -12.1875 L 3.09375 -12.1875 L 3.09375 0 Z M 1.671875 0 "/></g></g><g transform="translate(48.660247, 43.307257)"><g/></g><g transform="translate(53.093061, 43.307257)"><g><path d="M 9.328125 0 L 7.8125 -3.875 L 2.9375 -3.875 L 1.4375 0 L 0 0 L 4.8125 -12.234375 L 6 -12.234375 L 10.796875 0 Z M 7.375 -5.15625 L 5.953125 -8.921875 C 5.773438 -9.398438 5.585938 -9.988281 5.390625 -10.6875 C 5.265625 -10.144531 5.085938 -9.554688 4.859375 -8.921875 L 3.4375 -5.15625 Z M 7.375 -5.15625 "/></g></g><g transform="translate(63.891794, 43.307257)"><g/></g><g transform="translate(68.324608, 43.307257)"><g><path d="M 11.1875 0 L 9.578125 0 L 2.921875 -10.21875 L 2.84375 -10.21875 C 2.9375 -9.019531 2.984375 -7.921875 2.984375 -6.921875 L 2.984375 0 L 1.671875 0 L 1.671875 -12.1875 L 3.28125 -12.1875 L 9.921875 -2 L 9.984375 -2 C 9.972656 -2.144531 9.945312 -2.625 9.90625 -3.4375 C 9.863281 -4.257812 9.847656 -4.84375 9.859375 -5.1875 L 9.859375 -12.1875 L 11.1875 -12.1875 Z M 11.1875 0 "/></g></g><g transform="translate(81.189766, 43.307257)"><g/></g><g transform="translate(85.622579, 43.307257)"><g><path d="M 6.890625 -11.09375 C 5.546875 -11.09375 4.488281 -10.644531 3.71875 -9.75 C 2.945312 -8.863281 2.5625 -7.644531 2.5625 -6.09375 C 2.5625 -4.5 2.929688 -3.265625 3.671875 -2.390625 C 4.421875 -1.523438 5.488281 -1.09375 6.875 -1.09375 C 7.71875 -1.09375 8.6875 -1.242188 9.78125 -1.546875 L 9.78125 -0.3125 C 8.9375 0.0078125 7.894531 0.171875 6.65625 0.171875 C 4.863281 0.171875 3.476562 -0.367188 2.5 -1.453125 C 1.53125 -2.546875 1.046875 -4.097656 1.046875 -6.109375 C 1.046875 -7.359375 1.28125 -8.457031 1.75 -9.40625 C 2.21875 -10.351562 2.894531 -11.082031 3.78125 -11.59375 C 4.664062 -12.101562 5.707031 -12.359375 6.90625 -12.359375 C 8.1875 -12.359375 9.300781 -12.125 10.25 -11.65625 L 9.65625 -10.4375 C 8.726562 -10.875 7.804688 -11.09375 6.890625 -11.09375 Z M 6.890625 -11.09375 "/></g></g><g transform="translate(96.387984, 43.307257)"><g/></g><g transform="translate(100.820797, 43.307257)"><g><path d="M 8.46875 0 L 1.671875 0 L 1.671875 -12.1875 L 8.46875 -12.1875 L 8.46875 -10.921875 L 3.09375 -10.921875 L 3.09375 -7 L 8.140625 -7 L 8.140625 -5.75 L 3.09375 -5.75 L 3.09375 -1.265625 L 8.46875 -1.265625 Z M 8.46875 0 "/></g></g></g><g clip-path="url(#4279243306)"><g clip-path="url(#cba84319a3)"><path fill="#ff5757" d="M 2.238281 18.980469 L 11.207031 18.980469 L 11.207031 27.949219 L 2.238281 27.949219 Z M 2.238281 18.980469 " fill-opacity="1" fill-rule="nonzero"/></g></g><g clip-path="url(#530996097b)"><g clip-path="url(#f2d657620f)"><path fill="#a6a6a6" d="M 15.347656 18.980469 L 24.3125 18.980469 L 24.3125 27.949219 L 15.347656 27.949219 Z M 15.347656 18.980469 " fill-opacity="1" fill-rule="nonzero"/></g></g><g clip-path="url(#e2d1643263)"><g clip-path="url(#0c651df7d1)"><path fill="#ffbd59" d="M 28.792969 18.980469 L 37.757812 18.980469 L 37.757812 27.949219 L 28.792969 27.949219 Z M 28.792969 18.980469 " fill-opacity="1" fill-rule="nonzero"/></g></g><g fill="#000000" fill-opacity="1"><g transform="translate(3.087332, 56.873647)"><g><path d="M 2.96875 0 L 1.234375 -4.53125 L 1.203125 -4.53125 C 1.234375 -4.164062 1.25 -3.738281 1.25 -3.25 L 1.25 0 L 0.703125 0 L 0.703125 -5.109375 L 1.59375 -5.109375 L 3.21875 -0.890625 L 3.25 -0.890625 L 4.875 -5.109375 L 5.765625 -5.109375 L 5.765625 0 L 5.171875 0 L 5.171875 -3.296875 C 5.171875 -3.671875 5.1875 -4.078125 5.21875 -4.515625 L 5.1875 -4.515625 L 3.4375 0 Z M 2.96875 0 "/></g></g></g><g fill="#000000" fill-opacity="1"><g transform="translate(9.540232, 56.873647)"><g/></g></g><g fill="#000000" fill-opacity="1"><g transform="translate(11.39688, 56.873647)"><g><path d="M 3.546875 0 L 0.703125 0 L 0.703125 -5.109375 L 3.546875 -5.109375 L 3.546875 -4.578125 L 1.296875 -4.578125 L 1.296875 -2.9375 L 3.40625 -2.9375 L 3.40625 -2.40625 L 1.296875 -2.40625 L 1.296875 -0.53125 L 3.546875 -0.53125 Z M 3.546875 0 "/></g></g></g><g fill="#000000" fill-opacity="1"><g transform="translate(15.371922, 56.873647)"><g/></g></g><g fill="#000000" fill-opacity="1"><g transform="translate(17.22857, 56.873647)"><g><path d="M 4.78125 -2.609375 C 4.78125 -1.765625 4.550781 -1.117188 4.09375 -0.671875 C 3.632812 -0.222656 2.976562 0 2.125 0 L 0.703125 0 L 0.703125 -5.109375 L 2.265625 -5.109375 C 3.054688 -5.109375 3.671875 -4.882812 4.109375 -4.4375 C 4.554688 -4 4.78125 -3.390625 4.78125 -2.609375 Z M 4.15625 -2.578125 C 4.15625 -3.242188 3.984375 -3.742188 3.640625 -4.078125 C 3.304688 -4.421875 2.8125 -4.59375 2.15625 -4.59375 L 1.296875 -4.59375 L 1.296875 -0.515625 L 2.015625 -0.515625 C 2.722656 -0.515625 3.253906 -0.6875 3.609375 -1.03125 C 3.972656 -1.382812 4.15625 -1.898438 4.15625 -2.578125 Z M 4.15625 -2.578125 "/></g></g></g><g fill="#000000" fill-opacity="1"><g transform="translate(22.439051, 56.873647)"><g/></g></g><g fill="#000000" fill-opacity="1"><g transform="translate(24.2957, 56.873647)"><g><path d="M 0.703125 0 L 0.703125 -5.109375 L 1.296875 -5.109375 L 1.296875 0 Z M 0.703125 0 "/></g></g></g><g fill="#000000" fill-opacity="1"><g transform="translate(26.288456, 56.873647)"><g/></g></g><g fill="#000000" fill-opacity="1"><g transform="translate(28.145104, 56.873647)"><g><path d="M 2.890625 -4.65625 C 2.328125 -4.65625 1.882812 -4.46875 1.5625 -4.09375 C 1.238281 -3.71875 1.078125 -3.203125 1.078125 -2.546875 C 1.078125 -1.878906 1.234375 -1.363281 1.546875 -1 C 1.859375 -0.632812 2.300781 -0.453125 2.875 -0.453125 C 3.238281 -0.453125 3.648438 -0.519531 4.109375 -0.65625 L 4.109375 -0.125 C 3.753906 0 3.316406 0.0625 2.796875 0.0625 C 2.035156 0.0625 1.453125 -0.160156 1.046875 -0.609375 C 0.640625 -1.066406 0.4375 -1.71875 0.4375 -2.5625 C 0.4375 -3.082031 0.535156 -3.539062 0.734375 -3.9375 C 0.929688 -4.332031 1.210938 -4.640625 1.578125 -4.859375 C 1.953125 -5.078125 2.390625 -5.1875 2.890625 -5.1875 C 3.429688 -5.1875 3.898438 -5.085938 4.296875 -4.890625 L 4.046875 -4.375 C 3.660156 -4.5625 3.273438 -4.65625 2.890625 -4.65625 Z M 2.890625 -4.65625 "/></g></g></g><g fill="#000000" fill-opacity="1"><g transform="translate(32.654107, 56.873647)"><g/></g></g><g fill="#000000" fill-opacity="1"><g transform="translate(34.510755, 56.873647)"><g><path d="M 3.90625 0 L 3.28125 -1.625 L 1.234375 -1.625 L 0.59375 0 L 0 0 L 2.015625 -5.125 L 2.515625 -5.125 L 4.53125 0 Z M 3.09375 -2.15625 L 2.5 -3.75 C 2.425781 -3.945312 2.347656 -4.191406 2.265625 -4.484375 C 2.210938 -4.253906 2.140625 -4.007812 2.046875 -3.75 L 1.4375 -2.15625 Z M 3.09375 -2.15625 "/></g></g></g><g fill="#000000" fill-opacity="1"><g transform="translate(39.033718, 56.873647)"><g/></g></g><g fill="#000000" fill-opacity="1"><g transform="translate(40.890366, 56.873647)"><g><path d="M 0.703125 0 L 0.703125 -5.109375 L 1.296875 -5.109375 L 1.296875 -0.53125 L 3.546875 -0.53125 L 3.546875 0 Z M 0.703125 0 "/></g></g></g><g fill="#000000" fill-opacity="1"><g transform="translate(44.626327, 56.873647)"><g/></g></g><g fill="#000000" fill-opacity="1"><g transform="translate(46.482976, 56.873647)"><g/></g></g><g fill="#000000" fill-opacity="1"><g transform="translate(48.3682, 56.873647)"><g><path d="M 3.578125 -1.359375 C 3.578125 -0.910156 3.414062 -0.5625 3.09375 -0.3125 C 2.769531 -0.0625 2.328125 0.0625 1.765625 0.0625 C 1.160156 0.0625 0.695312 -0.015625 0.375 -0.171875 L 0.375 -0.734375 C 0.582031 -0.648438 0.804688 -0.582031 1.046875 -0.53125 C 1.296875 -0.476562 1.546875 -0.453125 1.796875 -0.453125 C 2.191406 -0.453125 2.488281 -0.523438 2.6875 -0.671875 C 2.882812 -0.828125 2.984375 -1.035156 2.984375 -1.296875 C 2.984375 -1.472656 2.945312 -1.617188 2.875 -1.734375 C 2.800781 -1.847656 2.679688 -1.953125 2.515625 -2.046875 C 2.347656 -2.140625 2.097656 -2.25 1.765625 -2.375 C 1.285156 -2.539062 0.941406 -2.738281 0.734375 -2.96875 C 0.535156 -3.207031 0.4375 -3.515625 0.4375 -3.890625 C 0.4375 -4.285156 0.582031 -4.597656 0.875 -4.828125 C 1.175781 -5.066406 1.566406 -5.1875 2.046875 -5.1875 C 2.554688 -5.1875 3.023438 -5.09375 3.453125 -4.90625 L 3.265625 -4.390625 C 2.847656 -4.566406 2.441406 -4.65625 2.046875 -4.65625 C 1.722656 -4.65625 1.472656 -4.585938 1.296875 -4.453125 C 1.117188 -4.316406 1.03125 -4.128906 1.03125 -3.890625 C 1.03125 -3.710938 1.0625 -3.566406 1.125 -3.453125 C 1.195312 -3.335938 1.3125 -3.234375 1.46875 -3.140625 C 1.625 -3.046875 1.859375 -2.941406 2.171875 -2.828125 C 2.710938 -2.640625 3.082031 -2.4375 3.28125 -2.21875 C 3.476562 -2 3.578125 -1.710938 3.578125 -1.359375 Z M 3.578125 -1.359375 "/></g></g></g><g fill="#000000" fill-opacity="1"><g transform="translate(52.290893, 56.873647)"><g/></g></g><g fill="#000000" fill-opacity="1"><g transform="translate(54.147542, 56.873647)"><g><path d="M 4.5625 -5.109375 L 4.5625 -1.796875 C 4.5625 -1.210938 4.382812 -0.753906 4.03125 -0.421875 C 3.675781 -0.0976562 3.191406 0.0625 2.578125 0.0625 C 1.960938 0.0625 1.488281 -0.101562 1.15625 -0.4375 C 0.820312 -0.769531 0.65625 -1.226562 0.65625 -1.8125 L 0.65625 -5.109375 L 1.25 -5.109375 L 1.25 -1.78125 C 1.25 -1.351562 1.363281 -1.023438 1.59375 -0.796875 C 1.820312 -0.566406 2.164062 -0.453125 2.625 -0.453125 C 3.050781 -0.453125 3.378906 -0.566406 3.609375 -0.796875 C 3.847656 -1.023438 3.96875 -1.351562 3.96875 -1.78125 L 3.96875 -5.109375 Z M 4.5625 -5.109375 "/></g></g></g><g fill="#000000" fill-opacity="1"><g transform="translate(59.351043, 56.873647)"><g/></g></g><g fill="#000000" fill-opacity="1"><g transform="translate(61.207691, 56.873647)"><g><path d="M 3.9375 -3.625 C 3.9375 -3.101562 3.757812 -2.703125 3.40625 -2.421875 C 3.050781 -2.148438 2.546875 -2.015625 1.890625 -2.015625 L 1.296875 -2.015625 L 1.296875 0 L 0.703125 0 L 0.703125 -5.109375 L 2.03125 -5.109375 C 3.300781 -5.109375 3.9375 -4.613281 3.9375 -3.625 Z M 1.296875 -2.515625 L 1.828125 -2.515625 C 2.359375 -2.515625 2.738281 -2.597656 2.96875 -2.765625 C 3.207031 -2.941406 3.328125 -3.21875 3.328125 -3.59375 C 3.328125 -3.925781 3.210938 -4.175781 2.984375 -4.34375 C 2.765625 -4.507812 2.421875 -4.59375 1.953125 -4.59375 L 1.296875 -4.59375 Z M 1.296875 -2.515625 "/></g></g></g><g fill="#000000" fill-opacity="1"><g transform="translate(65.510788, 56.873647)"><g/></g></g><g fill="#000000" fill-opacity="1"><g transform="translate(67.367436, 56.873647)"><g><path d="M 3.9375 -3.625 C 3.9375 -3.101562 3.757812 -2.703125 3.40625 -2.421875 C 3.050781 -2.148438 2.546875 -2.015625 1.890625 -2.015625 L 1.296875 -2.015625 L 1.296875 0 L 0.703125 0 L 0.703125 -5.109375 L 2.03125 -5.109375 C 3.300781 -5.109375 3.9375 -4.613281 3.9375 -3.625 Z M 1.296875 -2.515625 L 1.828125 -2.515625 C 2.359375 -2.515625 2.738281 -2.597656 2.96875 -2.765625 C 3.207031 -2.941406 3.328125 -3.21875 3.328125 -3.59375 C 3.328125 -3.925781 3.210938 -4.175781 2.984375 -4.34375 C 2.765625 -4.507812 2.421875 -4.59375 1.953125 -4.59375 L 1.296875 -4.59375 Z M 1.296875 -2.515625 "/></g></g></g><g fill="#000000" fill-opacity="1"><g transform="translate(71.670533, 56.873647)"><g/></g></g><g fill="#000000" fill-opacity="1"><g transform="translate(73.527181, 56.873647)"><g><path d="M 0.703125 0 L 0.703125 -5.109375 L 1.296875 -5.109375 L 1.296875 -0.53125 L 3.546875 -0.53125 L 3.546875 0 Z M 0.703125 0 "/></g></g></g><g fill="#000000" fill-opacity="1"><g transform="translate(77.236988, 56.873647)"><g/></g></g><g fill="#000000" fill-opacity="1"><g transform="translate(79.093636, 56.873647)"><g><path d="M 0.703125 0 L 0.703125 -5.109375 L 1.296875 -5.109375 L 1.296875 0 Z M 0.703125 0 "/></g></g></g><g fill="#000000" fill-opacity="1"><g transform="translate(81.086392, 56.873647)"><g/></g></g><g fill="#000000" fill-opacity="1"><g transform="translate(82.94304, 56.873647)"><g><path d="M 3.546875 0 L 0.703125 0 L 0.703125 -5.109375 L 3.546875 -5.109375 L 3.546875 -4.578125 L 1.296875 -4.578125 L 1.296875 -2.9375 L 3.40625 -2.9375 L 3.40625 -2.40625 L 1.296875 -2.40625 L 1.296875 -0.53125 L 3.546875 -0.53125 Z M 3.546875 0 "/></g></g></g><g fill="#000000" fill-opacity="1"><g transform="translate(86.918083, 56.873647)"><g/></g></g><g fill="#000000" fill-opacity="1"><g transform="translate(88.774731, 56.873647)"><g><path d="M 3.578125 -1.359375 C 3.578125 -0.910156 3.414062 -0.5625 3.09375 -0.3125 C 2.769531 -0.0625 2.328125 0.0625 1.765625 0.0625 C 1.160156 0.0625 0.695312 -0.015625 0.375 -0.171875 L 0.375 -0.734375 C 0.582031 -0.648438 0.804688 -0.582031 1.046875 -0.53125 C 1.296875 -0.476562 1.546875 -0.453125 1.796875 -0.453125 C 2.191406 -0.453125 2.488281 -0.523438 2.6875 -0.671875 C 2.882812 -0.828125 2.984375 -1.035156 2.984375 -1.296875 C 2.984375 -1.472656 2.945312 -1.617188 2.875 -1.734375 C 2.800781 -1.847656 2.679688 -1.953125 2.515625 -2.046875 C 2.347656 -2.140625 2.097656 -2.25 1.765625 -2.375 C 1.285156 -2.539062 0.941406 -2.738281 0.734375 -2.96875 C 0.535156 -3.207031 0.4375 -3.515625 0.4375 -3.890625 C 0.4375 -4.285156 0.582031 -4.597656 0.875 -4.828125 C 1.175781 -5.066406 1.566406 -5.1875 2.046875 -5.1875 C 2.554688 -5.1875 3.023438 -5.09375 3.453125 -4.90625 L 3.265625 -4.390625 C 2.847656 -4.566406 2.441406 -4.65625 2.046875 -4.65625 C 1.722656 -4.65625 1.472656 -4.585938 1.296875 -4.453125 C 1.117188 -4.316406 1.03125 -4.128906 1.03125 -3.890625 C 1.03125 -3.710938 1.0625 -3.566406 1.125 -3.453125 C 1.195312 -3.335938 1.3125 -3.234375 1.46875 -3.140625 C 1.625 -3.046875 1.859375 -2.941406 2.171875 -2.828125 C 2.710938 -2.640625 3.082031 -2.4375 3.28125 -2.21875 C 3.476562 -2 3.578125 -1.710938 3.578125 -1.359375 Z M 3.578125 -1.359375 "/></g></g></g></svg>