<svg xmlns="http://www.w3.org/2000/svg" xmlns:xlink="http://www.w3.org/1999/xlink" width="500" zoomAndPan="magnify" viewBox="0 0 375 374.999991" height="500" preserveAspectRatio="xMidYMid meet" version="1.0"><defs><clipPath id="f09558dc4a"><path d="M 30.042969 30 L 345.042969 30 L 345.042969 345 L 30.042969 345 Z M 30.042969 30 " clip-rule="nonzero"/></clipPath><clipPath id="b4f1b30406"><path d="M 187.542969 30.582031 C 184.96875 30.585938 182.394531 30.652344 179.820312 30.78125 C 177.246094 30.910156 174.675781 31.101562 172.113281 31.355469 C 169.546875 31.613281 166.992188 31.929688 164.445312 32.3125 C 161.894531 32.691406 159.355469 33.132812 156.832031 33.636719 C 154.304688 34.144531 151.789062 34.710938 149.292969 35.335938 C 146.792969 35.964844 144.308594 36.65625 141.84375 37.40625 C 139.378906 38.152344 136.933594 38.964844 134.507812 39.832031 C 132.082031 40.703125 129.679688 41.632812 127.300781 42.617188 C 124.917969 43.605469 122.566406 44.652344 120.238281 45.753906 C 117.90625 46.855469 115.605469 48.015625 113.335938 49.230469 C 111.0625 50.449219 108.820312 51.71875 106.613281 53.042969 C 104.402344 54.367188 102.226562 55.746094 100.085938 57.179688 C 97.941406 58.613281 95.835938 60.09375 93.765625 61.632812 C 91.699219 63.167969 89.667969 64.75 87.675781 66.386719 C 85.683594 68.019531 83.734375 69.703125 81.824219 71.433594 C 79.914062 73.164062 78.050781 74.941406 76.226562 76.761719 C 74.40625 78.585938 72.628906 80.449219 70.898438 82.359375 C 69.167969 84.269531 67.484375 86.21875 65.851562 88.210938 C 64.214844 90.203125 62.628906 92.230469 61.09375 94.300781 C 59.558594 96.371094 58.074219 98.476562 56.644531 100.617188 C 55.210938 102.761719 53.832031 104.9375 52.507812 107.144531 C 51.179688 109.355469 49.910156 111.597656 48.695312 113.867188 C 47.480469 116.140625 46.320312 118.441406 45.21875 120.769531 C 44.113281 123.097656 43.070312 125.453125 42.082031 127.832031 C 41.09375 130.210938 40.164062 132.613281 39.296875 135.039062 C 38.425781 137.464844 37.617188 139.910156 36.867188 142.375 C 36.117188 144.839844 35.429688 147.324219 34.800781 149.820312 C 34.171875 152.320312 33.605469 154.832031 33.101562 157.359375 C 32.597656 159.886719 32.152344 162.425781 31.773438 164.972656 C 31.390625 167.523438 31.074219 170.078125 30.820312 172.640625 C 30.5625 175.207031 30.371094 177.773438 30.242188 180.347656 C 30.113281 182.921875 30.046875 185.496094 30.042969 188.074219 C 38.695312 397.003906 336.425781 396.945312 345.046875 188.070312 C 345.042969 185.496094 344.976562 182.921875 344.847656 180.347656 C 344.71875 177.773438 344.527344 175.203125 344.269531 172.640625 C 344.015625 170.078125 343.699219 167.519531 343.316406 164.972656 C 342.9375 162.425781 342.492188 159.886719 341.988281 157.359375 C 341.484375 154.832031 340.917969 152.320312 340.289062 149.820312 C 339.660156 147.320312 338.972656 144.839844 338.222656 142.375 C 337.472656 139.910156 336.664062 137.464844 335.792969 135.039062 C 334.925781 132.613281 333.996094 130.210938 333.007812 127.832031 C 332.019531 125.449219 330.976562 123.097656 329.871094 120.769531 C 328.769531 118.441406 327.609375 116.140625 326.394531 113.867188 C 325.179688 111.59375 323.90625 109.355469 322.582031 107.144531 C 321.257812 104.9375 319.878906 102.761719 318.445312 100.617188 C 317.015625 98.476562 315.53125 96.371094 313.996094 94.300781 C 312.460938 92.230469 310.875 90.203125 309.238281 88.210938 C 307.605469 86.21875 305.921875 84.269531 304.191406 82.359375 C 302.460938 80.449219 300.683594 78.585938 298.863281 76.761719 C 297.039062 74.941406 295.171875 73.164062 293.265625 71.433594 C 291.355469 69.703125 289.40625 68.019531 287.414062 66.386719 C 285.421875 64.75 283.390625 63.164062 281.320312 61.628906 C 279.253906 60.09375 277.148438 58.613281 275.003906 57.179688 C 272.863281 55.746094 270.6875 54.367188 268.476562 53.042969 C 266.265625 51.71875 264.027344 50.445312 261.753906 49.230469 C 259.480469 48.015625 257.183594 46.855469 254.851562 45.753906 C 252.523438 44.652344 250.167969 43.605469 247.789062 42.617188 C 245.410156 41.632812 243.007812 40.703125 240.582031 39.832031 C 238.15625 38.964844 235.710938 38.152344 233.246094 37.40625 C 230.777344 36.65625 228.296875 35.964844 225.796875 35.335938 C 223.300781 34.710938 220.785156 34.144531 218.257812 33.636719 C 215.730469 33.132812 213.195312 32.691406 210.644531 32.3125 C 208.097656 31.929688 205.539062 31.613281 202.976562 31.355469 C 200.414062 31.101562 197.84375 30.910156 195.269531 30.78125 C 192.695312 30.652344 190.121094 30.585938 187.542969 30.582031 Z M 187.542969 328.984375 C 185.238281 328.984375 182.933594 328.921875 180.632812 328.808594 C 178.328125 328.691406 176.03125 328.519531 173.738281 328.292969 C 171.441406 328.0625 169.15625 327.78125 166.875 327.4375 C 164.59375 327.097656 162.324219 326.703125 160.0625 326.25 C 157.800781 325.800781 155.554688 325.292969 153.316406 324.730469 C 151.082031 324.167969 148.859375 323.550781 146.65625 322.882812 C 144.449219 322.210938 142.261719 321.488281 140.089844 320.707031 C 137.921875 319.929688 135.769531 319.097656 133.640625 318.214844 C 131.511719 317.332031 129.40625 316.398438 127.320312 315.410156 C 125.238281 314.425781 123.179688 313.386719 121.148438 312.300781 C 119.113281 311.210938 117.109375 310.074219 115.132812 308.890625 C 113.15625 307.703125 111.207031 306.46875 109.292969 305.1875 C 107.375 303.90625 105.492188 302.578125 103.640625 301.207031 C 101.789062 299.832031 99.96875 298.414062 98.1875 296.949219 C 96.40625 295.488281 94.660156 293.980469 92.953125 292.433594 C 91.246094 290.886719 89.574219 289.296875 87.945312 287.664062 C 86.316406 286.035156 84.726562 284.367188 83.175781 282.660156 C 81.628906 280.949219 80.125 279.207031 78.660156 277.421875 C 77.199219 275.640625 75.777344 273.824219 74.40625 271.972656 C 73.03125 270.121094 71.703125 268.238281 70.421875 266.320312 C 69.140625 264.40625 67.90625 262.457031 66.722656 260.480469 C 65.535156 258.503906 64.398438 256.5 63.3125 254.464844 C 62.222656 252.433594 61.1875 250.375 60.199219 248.292969 C 59.210938 246.207031 58.277344 244.101562 57.394531 241.972656 C 56.511719 239.84375 55.679688 237.695312 54.902344 235.523438 C 54.125 233.351562 53.398438 231.164062 52.726562 228.960938 C 52.058594 226.753906 51.441406 224.535156 50.878906 222.296875 C 50.316406 220.0625 49.808594 217.8125 49.359375 215.550781 C 48.90625 213.292969 48.511719 211.019531 48.167969 208.742188 C 47.828125 206.460938 47.546875 204.175781 47.316406 201.878906 C 47.089844 199.585938 46.917969 197.289062 46.800781 194.984375 C 46.683594 192.683594 46.625 190.378906 46.625 188.074219 C 54.367188 1.132812 320.75 1.1875 328.464844 188.074219 C 328.464844 190.378906 328.40625 192.683594 328.289062 194.984375 C 328.171875 197.289062 328 199.585938 327.773438 201.878906 C 327.542969 204.175781 327.261719 206.460938 326.917969 208.742188 C 326.578125 211.023438 326.183594 213.292969 325.730469 215.554688 C 325.28125 217.8125 324.773438 220.0625 324.210938 222.296875 C 323.648438 224.535156 323.03125 226.753906 322.363281 228.960938 C 321.691406 231.167969 320.964844 233.355469 320.1875 235.523438 C 319.410156 237.695312 318.578125 239.84375 317.695312 241.972656 C 316.8125 244.101562 315.878906 246.210938 314.890625 248.292969 C 313.902344 250.375 312.867188 252.433594 311.777344 254.46875 C 310.691406 256.5 309.554688 258.503906 308.367188 260.480469 C 307.183594 262.460938 305.949219 264.40625 304.667969 266.320312 C 303.386719 268.238281 302.058594 270.121094 300.683594 271.972656 C 299.308594 273.824219 297.890625 275.640625 296.429688 277.425781 C 294.964844 279.207031 293.460938 280.949219 291.910156 282.660156 C 290.363281 284.367188 288.773438 286.035156 287.144531 287.667969 C 285.511719 289.296875 283.84375 290.886719 282.136719 292.433594 C 280.429688 293.984375 278.683594 295.488281 276.902344 296.949219 C 275.117188 298.414062 273.300781 299.832031 271.449219 301.207031 C 269.597656 302.578125 267.714844 303.90625 265.796875 305.1875 C 263.882812 306.46875 261.933594 307.703125 259.957031 308.890625 C 257.980469 310.074219 255.976562 311.210938 253.941406 312.300781 C 251.910156 313.386719 249.851562 314.425781 247.769531 315.410156 C 245.683594 316.398438 243.578125 317.332031 241.449219 318.214844 C 239.316406 319.097656 237.167969 319.929688 234.996094 320.707031 C 232.828125 321.488281 230.640625 322.210938 228.433594 322.882812 C 226.226562 323.550781 224.007812 324.167969 221.769531 324.730469 C 219.535156 325.292969 217.285156 325.800781 215.027344 326.25 C 212.765625 326.703125 210.496094 327.097656 208.214844 327.4375 C 205.933594 327.78125 203.648438 328.0625 201.351562 328.292969 C 199.058594 328.519531 196.757812 328.691406 194.457031 328.808594 C 192.15625 328.921875 189.851562 328.984375 187.542969 328.984375 Z M 187.542969 163.207031 C 186.734375 163.214844 185.925781 163.261719 185.121094 163.347656 C 184.316406 163.433594 183.519531 163.558594 182.726562 163.722656 C 181.933594 163.886719 181.148438 164.089844 180.375 164.328125 C 179.601562 164.570312 178.84375 164.847656 178.097656 165.164062 C 177.351562 165.476562 176.621094 165.828125 175.910156 166.214844 C 175.199219 166.601562 174.507812 167.019531 173.835938 167.472656 C 173.164062 167.925781 172.515625 168.414062 171.894531 168.929688 C 171.269531 169.445312 170.671875 169.992188 170.105469 170.566406 C 169.535156 171.144531 168.992188 171.746094 168.480469 172.371094 C 167.96875 173 167.492188 173.652344 167.042969 174.328125 C 166.59375 175 166.183594 175.695312 165.800781 176.410156 C 165.421875 177.128906 165.078125 177.859375 164.769531 178.609375 C 164.460938 179.355469 164.191406 180.117188 163.957031 180.894531 C 163.722656 181.667969 163.527344 182.453125 163.371094 183.25 C 163.214844 184.042969 163.09375 184.84375 163.015625 185.648438 C 162.9375 186.457031 162.898438 187.261719 162.898438 188.074219 C 162.898438 188.882812 162.9375 189.691406 163.015625 190.496094 C 163.09375 191.300781 163.214844 192.101562 163.371094 192.898438 C 163.527344 193.691406 163.722656 194.476562 163.957031 195.25 C 164.191406 196.027344 164.460938 196.789062 164.769531 197.539062 C 165.078125 198.285156 165.421875 199.019531 165.800781 199.734375 C 166.183594 200.449219 166.59375 201.144531 167.042969 201.820312 C 167.492188 202.496094 167.96875 203.144531 168.480469 203.773438 C 168.992188 204.402344 169.535156 205.003906 170.105469 205.578125 C 170.675781 206.152344 171.269531 206.699219 171.894531 207.214844 C 172.519531 207.734375 173.164062 208.21875 173.835938 208.671875 C 174.507812 209.125 175.199219 209.546875 175.910156 209.933594 C 176.621094 210.316406 177.351562 210.667969 178.097656 210.984375 C 178.84375 211.296875 179.601562 211.578125 180.375 211.816406 C 181.148438 212.058594 181.933594 212.261719 182.726562 212.425781 C 183.519531 212.589844 184.316406 212.714844 185.121094 212.800781 C 185.929688 212.886719 186.734375 212.933594 187.546875 212.941406 C 188.355469 212.933594 189.164062 212.886719 189.96875 212.800781 C 190.773438 212.714844 191.574219 212.589844 192.367188 212.425781 C 193.160156 212.261719 193.941406 212.058594 194.714844 211.816406 C 195.488281 211.578125 196.246094 211.296875 196.992188 210.984375 C 197.738281 210.667969 198.46875 210.316406 199.179688 209.933594 C 199.890625 209.546875 200.582031 209.125 201.253906 208.671875 C 201.925781 208.21875 202.574219 207.734375 203.195312 207.214844 C 203.820312 206.699219 204.417969 206.152344 204.988281 205.578125 C 205.554688 205.003906 206.097656 204.402344 206.609375 203.773438 C 207.121094 203.144531 207.597656 202.496094 208.046875 201.820312 C 208.496094 201.144531 208.910156 200.449219 209.289062 199.734375 C 209.667969 199.019531 210.011719 198.285156 210.320312 197.539062 C 210.628906 196.789062 210.898438 196.027344 211.132812 195.25 C 211.367188 194.476562 211.5625 193.691406 211.71875 192.898438 C 211.875 192.101562 211.996094 191.300781 212.074219 190.496094 C 212.152344 189.691406 212.191406 188.882812 212.191406 188.074219 C 212.191406 187.261719 212.152344 186.457031 212.074219 185.648438 C 211.996094 184.84375 211.875 184.042969 211.71875 183.25 C 211.5625 182.453125 211.367188 181.667969 211.132812 180.894531 C 210.898438 180.117188 210.628906 179.355469 210.320312 178.609375 C 210.011719 177.859375 209.667969 177.125 209.289062 176.410156 C 208.90625 175.695312 208.496094 175 208.046875 174.328125 C 207.597656 173.652344 207.121094 173 206.609375 172.371094 C 206.097656 171.746094 205.554688 171.144531 204.984375 170.566406 C 204.414062 169.992188 203.820312 169.445312 203.195312 168.929688 C 202.574219 168.414062 201.925781 167.925781 201.253906 167.472656 C 200.582031 167.019531 199.890625 166.601562 199.179688 166.214844 C 198.46875 165.828125 197.738281 165.476562 196.992188 165.164062 C 196.246094 164.847656 195.488281 164.570312 194.714844 164.328125 C 193.941406 164.089844 193.15625 163.886719 192.363281 163.722656 C 191.570312 163.558594 190.773438 163.433594 189.96875 163.347656 C 189.160156 163.261719 188.355469 163.214844 187.542969 163.207031 Z M 187.542969 196.363281 C 187.003906 196.355469 186.472656 196.292969 185.945312 196.183594 C 185.417969 196.070312 184.90625 195.910156 184.410156 195.695312 C 183.914062 195.484375 183.441406 195.226562 182.996094 194.921875 C 182.550781 194.621094 182.140625 194.277344 181.761719 193.890625 C 181.382812 193.507812 181.042969 193.089844 180.746094 192.640625 C 180.449219 192.191406 180.199219 191.714844 179.996094 191.21875 C 179.789062 190.71875 179.636719 190.203125 179.53125 189.675781 C 179.429688 189.144531 179.375 188.613281 179.375 188.074219 C 179.375 187.535156 179.429688 187 179.53125 186.46875 C 179.636719 185.941406 179.789062 185.425781 179.996094 184.929688 C 180.199219 184.429688 180.449219 183.957031 180.746094 183.503906 C 181.046875 183.054688 181.382812 182.636719 181.761719 182.253906 C 182.140625 181.871094 182.550781 181.527344 182.996094 181.222656 C 183.441406 180.917969 183.914062 180.660156 184.410156 180.449219 C 184.90625 180.238281 185.417969 180.074219 185.945312 179.964844 C 186.472656 179.851562 187.007812 179.792969 187.546875 179.785156 C 188.085938 179.792969 188.617188 179.851562 189.144531 179.964844 C 189.671875 180.074219 190.183594 180.238281 190.679688 180.449219 C 191.175781 180.660156 191.648438 180.917969 192.09375 181.222656 C 192.539062 181.527344 192.949219 181.871094 193.328125 182.253906 C 193.707031 182.636719 194.046875 183.054688 194.34375 183.503906 C 194.640625 183.957031 194.890625 184.429688 195.09375 184.929688 C 195.300781 185.425781 195.453125 185.941406 195.558594 186.472656 C 195.660156 187 195.714844 187.535156 195.714844 188.074219 C 195.714844 188.613281 195.660156 189.148438 195.558594 189.675781 C 195.453125 190.203125 195.300781 190.71875 195.09375 191.21875 C 194.890625 191.714844 194.640625 192.191406 194.34375 192.640625 C 194.042969 193.089844 193.707031 193.507812 193.328125 193.890625 C 192.949219 194.277344 192.539062 194.621094 192.09375 194.921875 C 191.648438 195.226562 191.175781 195.484375 190.679688 195.695312 C 190.183594 195.910156 189.671875 196.070312 189.144531 196.183594 C 188.617188 196.292969 188.082031 196.355469 187.542969 196.363281 Z M 121.230469 163.207031 C 120.417969 163.214844 119.613281 163.261719 118.804688 163.347656 C 118 163.433594 117.203125 163.558594 116.410156 163.722656 C 115.617188 163.886719 114.832031 164.089844 114.058594 164.328125 C 113.285156 164.570312 112.527344 164.847656 111.78125 165.164062 C 111.035156 165.476562 110.304688 165.828125 109.59375 166.214844 C 108.882812 166.601562 108.191406 167.019531 107.519531 167.472656 C 106.847656 167.925781 106.203125 168.414062 105.578125 168.929688 C 104.953125 169.445312 104.359375 169.992188 103.789062 170.566406 C 103.21875 171.144531 102.675781 171.746094 102.164062 172.371094 C 101.65625 173 101.175781 173.652344 100.726562 174.328125 C 100.28125 175 99.867188 175.695312 99.484375 176.410156 C 99.105469 177.128906 98.761719 177.859375 98.453125 178.609375 C 98.144531 179.355469 97.875 180.117188 97.640625 180.894531 C 97.40625 181.667969 97.210938 182.453125 97.054688 183.25 C 96.898438 184.042969 96.78125 184.84375 96.699219 185.648438 C 96.621094 186.457031 96.582031 187.261719 96.582031 188.074219 C 96.582031 188.882812 96.621094 189.691406 96.699219 190.496094 C 96.78125 191.300781 96.898438 192.101562 97.054688 192.898438 C 97.210938 193.691406 97.40625 194.476562 97.640625 195.25 C 97.875 196.027344 98.144531 196.789062 98.453125 197.539062 C 98.761719 198.285156 99.105469 199.019531 99.488281 199.734375 C 99.867188 200.449219 100.28125 201.144531 100.726562 201.820312 C 101.175781 202.496094 101.65625 203.144531 102.167969 203.773438 C 102.675781 204.402344 103.21875 205.003906 103.789062 205.578125 C 104.359375 206.152344 104.953125 206.699219 105.578125 207.214844 C 106.203125 207.734375 106.847656 208.21875 107.519531 208.671875 C 108.191406 209.125 108.882812 209.546875 109.59375 209.933594 C 110.304688 210.316406 111.035156 210.667969 111.78125 210.984375 C 112.527344 211.296875 113.285156 211.578125 114.058594 211.816406 C 114.832031 212.058594 115.617188 212.261719 116.410156 212.425781 C 117.203125 212.589844 118 212.714844 118.808594 212.800781 C 119.613281 212.886719 120.417969 212.933594 121.230469 212.941406 C 122.039062 212.933594 122.847656 212.886719 123.652344 212.800781 C 124.457031 212.714844 125.257812 212.589844 126.050781 212.425781 C 126.84375 212.261719 127.625 212.058594 128.398438 211.816406 C 129.171875 211.578125 129.933594 211.296875 130.679688 210.984375 C 131.425781 210.667969 132.152344 210.316406 132.863281 209.933594 C 133.578125 209.546875 134.269531 209.125 134.9375 208.671875 C 135.609375 208.21875 136.257812 207.734375 136.878906 207.214844 C 137.503906 206.699219 138.101562 206.152344 138.671875 205.578125 C 139.242188 205.003906 139.78125 204.402344 140.292969 203.773438 C 140.804688 203.144531 141.285156 202.496094 141.730469 201.820312 C 142.179688 201.144531 142.59375 200.449219 142.972656 199.734375 C 143.351562 199.019531 143.695312 198.285156 144.003906 197.539062 C 144.3125 196.789062 144.582031 196.027344 144.816406 195.25 C 145.050781 194.476562 145.246094 193.691406 145.402344 192.898438 C 145.5625 192.101562 145.679688 191.300781 145.757812 190.496094 C 145.835938 189.691406 145.875 188.882812 145.875 188.074219 C 145.875 187.261719 145.835938 186.457031 145.757812 185.648438 C 145.679688 184.84375 145.5625 184.042969 145.402344 183.25 C 145.246094 182.453125 145.050781 181.667969 144.816406 180.894531 C 144.582031 180.117188 144.3125 179.355469 144.003906 178.609375 C 143.695312 177.859375 143.351562 177.125 142.972656 176.410156 C 142.59375 175.695312 142.179688 175 141.730469 174.328125 C 141.285156 173.652344 140.804688 173 140.292969 172.371094 C 139.78125 171.746094 139.242188 171.144531 138.671875 170.566406 C 138.101562 169.992188 137.503906 169.445312 136.878906 168.929688 C 136.257812 168.414062 135.609375 167.925781 134.9375 167.472656 C 134.269531 167.019531 133.578125 166.601562 132.863281 166.214844 C 132.152344 165.828125 131.421875 165.476562 130.675781 165.164062 C 129.929688 164.847656 129.171875 164.570312 128.398438 164.328125 C 127.625 164.089844 126.84375 163.886719 126.050781 163.722656 C 125.257812 163.558594 124.457031 163.433594 123.652344 163.347656 C 122.847656 163.261719 122.039062 163.214844 121.230469 163.207031 Z M 121.230469 196.363281 C 120.691406 196.355469 120.15625 196.292969 119.628906 196.183594 C 119.101562 196.070312 118.589844 195.910156 118.09375 195.695312 C 117.597656 195.484375 117.128906 195.226562 116.679688 194.921875 C 116.234375 194.621094 115.824219 194.277344 115.445312 193.890625 C 115.066406 193.507812 114.730469 193.089844 114.433594 192.640625 C 114.132812 192.191406 113.882812 191.714844 113.679688 191.21875 C 113.476562 190.71875 113.320312 190.203125 113.214844 189.675781 C 113.113281 189.144531 113.058594 188.613281 113.058594 188.074219 C 113.058594 187.535156 113.113281 187 113.214844 186.46875 C 113.320312 185.941406 113.476562 185.425781 113.679688 184.929688 C 113.882812 184.429688 114.136719 183.957031 114.433594 183.503906 C 114.730469 183.054688 115.066406 182.636719 115.445312 182.253906 C 115.824219 181.871094 116.234375 181.527344 116.683594 181.222656 C 117.128906 180.917969 117.597656 180.660156 118.09375 180.449219 C 118.589844 180.238281 119.101562 180.074219 119.628906 179.964844 C 120.15625 179.851562 120.691406 179.792969 121.230469 179.785156 C 121.769531 179.792969 122.300781 179.851562 122.828125 179.964844 C 123.355469 180.074219 123.867188 180.238281 124.363281 180.449219 C 124.859375 180.660156 125.332031 180.917969 125.777344 181.222656 C 126.222656 181.527344 126.632812 181.871094 127.011719 182.253906 C 127.390625 182.636719 127.730469 183.054688 128.027344 183.503906 C 128.324219 183.957031 128.574219 184.429688 128.777344 184.929688 C 128.984375 185.425781 129.136719 185.941406 129.242188 186.472656 C 129.347656 187 129.398438 187.535156 129.398438 188.074219 C 129.398438 188.613281 129.347656 189.148438 129.242188 189.675781 C 129.136719 190.203125 128.984375 190.71875 128.777344 191.21875 C 128.574219 191.714844 128.324219 192.191406 128.027344 192.640625 C 127.730469 193.089844 127.390625 193.507812 127.011719 193.890625 C 126.632812 194.277344 126.222656 194.621094 125.777344 194.921875 C 125.332031 195.226562 124.859375 195.484375 124.363281 195.695312 C 123.867188 195.910156 123.355469 196.070312 122.828125 196.183594 C 122.300781 196.292969 121.769531 196.355469 121.230469 196.363281 Z M 253.859375 163.207031 C 253.050781 163.214844 252.242188 163.261719 251.4375 163.347656 C 250.632812 163.433594 249.832031 163.558594 249.039062 163.722656 C 248.246094 163.886719 247.464844 164.089844 246.691406 164.328125 C 245.917969 164.570312 245.15625 164.847656 244.410156 165.164062 C 243.664062 165.476562 242.9375 165.828125 242.226562 166.214844 C 241.511719 166.601562 240.820312 167.019531 240.152344 167.472656 C 239.480469 167.925781 238.832031 168.414062 238.210938 168.929688 C 237.585938 169.445312 236.988281 169.992188 236.417969 170.566406 C 235.847656 171.144531 235.308594 171.746094 234.796875 172.371094 C 234.285156 173 233.804688 173.652344 233.359375 174.328125 C 232.910156 175 232.496094 175.695312 232.117188 176.410156 C 231.738281 177.128906 231.394531 177.859375 231.085938 178.609375 C 230.777344 179.355469 230.507812 180.117188 230.273438 180.894531 C 230.039062 181.667969 229.84375 182.453125 229.6875 183.25 C 229.53125 184.042969 229.410156 184.84375 229.332031 185.648438 C 229.253906 186.457031 229.214844 187.261719 229.214844 188.074219 C 229.214844 188.882812 229.253906 189.691406 229.332031 190.496094 C 229.410156 191.300781 229.53125 192.101562 229.6875 192.898438 C 229.84375 193.691406 230.039062 194.476562 230.273438 195.25 C 230.507812 196.027344 230.777344 196.789062 231.085938 197.539062 C 231.394531 198.285156 231.738281 199.019531 232.117188 199.734375 C 232.496094 200.449219 232.910156 201.144531 233.359375 201.820312 C 233.808594 202.496094 234.285156 203.144531 234.796875 203.773438 C 235.308594 204.402344 235.851562 205.003906 236.417969 205.578125 C 236.988281 206.152344 237.585938 206.699219 238.210938 207.214844 C 238.832031 207.734375 239.480469 208.21875 240.152344 208.671875 C 240.824219 209.125 241.515625 209.546875 242.226562 209.933594 C 242.9375 210.316406 243.667969 210.667969 244.414062 210.984375 C 245.160156 211.296875 245.917969 211.578125 246.691406 211.816406 C 247.464844 212.058594 248.246094 212.261719 249.039062 212.425781 C 249.835938 212.589844 250.632812 212.714844 251.4375 212.800781 C 252.242188 212.886719 253.050781 212.933594 253.859375 212.941406 C 254.671875 212.933594 255.476562 212.886719 256.285156 212.800781 C 257.089844 212.714844 257.886719 212.589844 258.679688 212.425781 C 259.472656 212.261719 260.257812 212.058594 261.03125 211.816406 C 261.804688 211.578125 262.5625 211.296875 263.308594 210.984375 C 264.054688 210.667969 264.785156 210.316406 265.496094 209.933594 C 266.207031 209.546875 266.898438 209.125 267.570312 208.671875 C 268.242188 208.21875 268.886719 207.734375 269.511719 207.214844 C 270.136719 206.699219 270.730469 206.152344 271.300781 205.578125 C 271.871094 205.003906 272.414062 204.402344 272.925781 203.773438 C 273.4375 203.144531 273.914062 202.496094 274.363281 201.820312 C 274.808594 201.144531 275.222656 200.449219 275.605469 199.734375 C 275.984375 199.019531 276.328125 198.285156 276.636719 197.539062 C 276.945312 196.789062 277.214844 196.027344 277.449219 195.25 C 277.683594 194.476562 277.878906 193.691406 278.035156 192.898438 C 278.191406 192.101562 278.308594 191.300781 278.390625 190.496094 C 278.46875 189.691406 278.507812 188.882812 278.507812 188.074219 C 278.507812 187.261719 278.46875 186.457031 278.390625 185.648438 C 278.308594 184.84375 278.191406 184.042969 278.035156 183.25 C 277.878906 182.453125 277.683594 181.667969 277.449219 180.894531 C 277.214844 180.117188 276.945312 179.355469 276.636719 178.609375 C 276.328125 177.859375 275.984375 177.125 275.605469 176.410156 C 275.222656 175.695312 274.808594 175 274.363281 174.328125 C 273.914062 173.652344 273.433594 173 272.925781 172.371094 C 272.414062 171.746094 271.871094 171.144531 271.300781 170.566406 C 270.730469 169.992188 270.136719 169.445312 269.511719 168.929688 C 268.886719 168.414062 268.242188 167.925781 267.570312 167.472656 C 266.898438 167.019531 266.207031 166.601562 265.496094 166.214844 C 264.785156 165.828125 264.054688 165.476562 263.308594 165.164062 C 262.5625 164.847656 261.804688 164.570312 261.03125 164.328125 C 260.257812 164.089844 259.472656 163.886719 258.679688 163.722656 C 257.886719 163.558594 257.089844 163.433594 256.28125 163.347656 C 255.476562 163.261719 254.671875 163.214844 253.859375 163.207031 Z M 253.859375 196.363281 C 253.320312 196.355469 252.789062 196.292969 252.261719 196.183594 C 251.734375 196.070312 251.222656 195.910156 250.726562 195.695312 C 250.230469 195.484375 249.757812 195.226562 249.3125 194.921875 C 248.867188 194.621094 248.457031 194.277344 248.078125 193.890625 C 247.699219 193.507812 247.359375 193.089844 247.0625 192.640625 C 246.765625 192.191406 246.515625 191.714844 246.3125 191.21875 C 246.105469 190.71875 245.953125 190.203125 245.847656 189.675781 C 245.742188 189.144531 245.691406 188.613281 245.691406 188.074219 C 245.691406 187.535156 245.742188 187 245.847656 186.46875 C 245.953125 185.941406 246.105469 185.425781 246.3125 184.929688 C 246.515625 184.429688 246.765625 183.957031 247.0625 183.503906 C 247.359375 183.054688 247.699219 182.636719 248.078125 182.253906 C 248.457031 181.871094 248.867188 181.527344 249.3125 181.222656 C 249.757812 180.917969 250.230469 180.660156 250.726562 180.449219 C 251.222656 180.238281 251.734375 180.074219 252.261719 179.964844 C 252.789062 179.851562 253.320312 179.792969 253.859375 179.785156 C 254.398438 179.792969 254.933594 179.851562 255.460938 179.964844 C 255.988281 180.074219 256.5 180.238281 256.996094 180.449219 C 257.492188 180.660156 257.960938 180.917969 258.410156 181.222656 C 258.855469 181.527344 259.265625 181.871094 259.644531 182.253906 C 260.023438 182.636719 260.359375 183.054688 260.65625 183.503906 C 260.957031 183.957031 261.207031 184.429688 261.410156 184.929688 C 261.613281 185.425781 261.769531 185.941406 261.875 186.472656 C 261.976562 187 262.03125 187.535156 262.03125 188.074219 C 262.03125 188.613281 261.976562 189.148438 261.875 189.675781 C 261.769531 190.203125 261.613281 190.71875 261.410156 191.21875 C 261.207031 191.714844 260.953125 192.191406 260.65625 192.640625 C 260.359375 193.089844 260.023438 193.507812 259.644531 193.890625 C 259.265625 194.277344 258.855469 194.621094 258.40625 194.921875 C 257.960938 195.226562 257.492188 195.484375 256.996094 195.695312 C 256.5 195.910156 255.988281 196.070312 255.460938 196.183594 C 254.933594 196.292969 254.398438 196.355469 253.859375 196.363281 Z M 253.859375 196.363281 " clip-rule="nonzero"/></clipPath><linearGradient x1="3.5" gradientTransform="matrix(5.526316, 0, 0, 5.525971, 10.702629, 11.24195)" y1="31.926001" x2="60.499993" gradientUnits="userSpaceOnUse" y2="31.926001" id="0b55d034c0"><stop stop-opacity="1" stop-color="rgb(0%, 75.299072%, 100%)" offset="0"/><stop stop-opacity="1" stop-color="rgb(0.1297%, 75.138855%, 100%)" offset="0.0078125"/><stop stop-opacity="1" stop-color="rgb(0.389099%, 74.819946%, 100%)" offset="0.015625"/><stop stop-opacity="1" stop-color="rgb(0.648499%, 74.501038%, 100%)" offset="0.0234375"/><stop stop-opacity="1" stop-color="rgb(0.909424%, 74.183655%, 100%)" offset="0.03125"/><stop stop-opacity="1" stop-color="rgb(1.168823%, 73.864746%, 100%)" offset="0.0390625"/><stop stop-opacity="1" stop-color="rgb(1.429749%, 73.545837%, 100%)" offset="0.046875"/><stop stop-opacity="1" stop-color="rgb(1.689148%, 73.226929%, 100%)" offset="0.0546875"/><stop stop-opacity="1" stop-color="rgb(1.950073%, 72.90802%, 100%)" offset="0.0625"/><stop stop-opacity="1" stop-color="rgb(2.209473%, 72.589111%, 100%)" offset="0.0703125"/><stop stop-opacity="1" stop-color="rgb(2.470398%, 72.270203%, 100%)" offset="0.078125"/><stop stop-opacity="1" stop-color="rgb(2.729797%, 71.951294%, 100%)" offset="0.0859375"/><stop stop-opacity="1" stop-color="rgb(2.990723%, 71.632385%, 100%)" offset="0.09375"/><stop stop-opacity="1" stop-color="rgb(3.250122%, 71.313477%, 100%)" offset="0.101562"/><stop stop-opacity="1" stop-color="rgb(3.511047%, 70.996094%, 100%)" offset="0.109375"/><stop stop-opacity="1" stop-color="rgb(3.770447%, 70.677185%, 100%)" offset="0.117188"/><stop stop-opacity="1" stop-color="rgb(4.031372%, 70.358276%, 100%)" offset="0.125"/><stop stop-opacity="1" stop-color="rgb(4.290771%, 70.039368%, 100%)" offset="0.132812"/><stop stop-opacity="1" stop-color="rgb(4.551697%, 69.720459%, 100%)" offset="0.140625"/><stop stop-opacity="1" stop-color="rgb(4.811096%, 69.40155%, 100%)" offset="0.148438"/><stop stop-opacity="1" stop-color="rgb(5.072021%, 69.082642%, 100%)" offset="0.15625"/><stop stop-opacity="1" stop-color="rgb(5.331421%, 68.763733%, 100%)" offset="0.164062"/><stop stop-opacity="1" stop-color="rgb(5.592346%, 68.444824%, 100%)" offset="0.171875"/><stop stop-opacity="1" stop-color="rgb(5.851746%, 68.127441%, 100%)" offset="0.179687"/><stop stop-opacity="1" stop-color="rgb(6.112671%, 67.808533%, 100%)" offset="0.1875"/><stop stop-opacity="1" stop-color="rgb(6.37207%, 67.489624%, 100%)" offset="0.195312"/><stop stop-opacity="1" stop-color="rgb(6.632996%, 67.170715%, 100%)" offset="0.203125"/><stop stop-opacity="1" stop-color="rgb(6.892395%, 66.851807%, 100%)" offset="0.210937"/><stop stop-opacity="1" stop-color="rgb(7.15332%, 66.532898%, 100%)" offset="0.21875"/><stop stop-opacity="1" stop-color="rgb(7.41272%, 66.213989%, 100%)" offset="0.226562"/><stop stop-opacity="1" stop-color="rgb(7.673645%, 65.895081%, 100%)" offset="0.234375"/><stop stop-opacity="1" stop-color="rgb(7.933044%, 65.576172%, 100%)" offset="0.242187"/><stop stop-opacity="1" stop-color="rgb(8.19397%, 65.257263%, 100%)" offset="0.25"/><stop stop-opacity="1" stop-color="rgb(8.453369%, 64.93988%, 100%)" offset="0.257813"/><stop stop-opacity="1" stop-color="rgb(8.714294%, 64.620972%, 100%)" offset="0.265625"/><stop stop-opacity="1" stop-color="rgb(8.973694%, 64.302063%, 100%)" offset="0.273438"/><stop stop-opacity="1" stop-color="rgb(9.234619%, 63.983154%, 100%)" offset="0.28125"/><stop stop-opacity="1" stop-color="rgb(9.494019%, 63.664246%, 100%)" offset="0.289062"/><stop stop-opacity="1" stop-color="rgb(9.754944%, 63.345337%, 100%)" offset="0.296875"/><stop stop-opacity="1" stop-color="rgb(10.014343%, 63.026428%, 100%)" offset="0.304688"/><stop stop-opacity="1" stop-color="rgb(10.275269%, 62.70752%, 100%)" offset="0.3125"/><stop stop-opacity="1" stop-color="rgb(10.534668%, 62.388611%, 100%)" offset="0.320312"/><stop stop-opacity="1" stop-color="rgb(10.795593%, 62.069702%, 100%)" offset="0.328125"/><stop stop-opacity="1" stop-color="rgb(11.054993%, 61.752319%, 100%)" offset="0.335938"/><stop stop-opacity="1" stop-color="rgb(11.315918%, 61.433411%, 100%)" offset="0.34375"/><stop stop-opacity="1" stop-color="rgb(11.575317%, 61.114502%, 100%)" offset="0.351562"/><stop stop-opacity="1" stop-color="rgb(11.836243%, 60.795593%, 100%)" offset="0.359375"/><stop stop-opacity="1" stop-color="rgb(12.095642%, 60.476685%, 100%)" offset="0.367188"/><stop stop-opacity="1" stop-color="rgb(12.356567%, 60.157776%, 100%)" offset="0.375"/><stop stop-opacity="1" stop-color="rgb(12.615967%, 59.838867%, 100%)" offset="0.382812"/><stop stop-opacity="1" stop-color="rgb(12.876892%, 59.519958%, 100%)" offset="0.390625"/><stop stop-opacity="1" stop-color="rgb(13.136292%, 59.20105%, 100%)" offset="0.398438"/><stop stop-opacity="1" stop-color="rgb(13.397217%, 58.883667%, 100%)" offset="0.40625"/><stop stop-opacity="1" stop-color="rgb(13.656616%, 58.564758%, 100%)" offset="0.414062"/><stop stop-opacity="1" stop-color="rgb(13.917542%, 58.24585%, 100%)" offset="0.421875"/><stop stop-opacity="1" stop-color="rgb(14.176941%, 57.926941%, 100%)" offset="0.429688"/><stop stop-opacity="1" stop-color="rgb(14.437866%, 57.608032%, 100%)" offset="0.4375"/><stop stop-opacity="1" stop-color="rgb(14.697266%, 57.289124%, 100%)" offset="0.445313"/><stop stop-opacity="1" stop-color="rgb(14.958191%, 56.970215%, 100%)" offset="0.453125"/><stop stop-opacity="1" stop-color="rgb(15.21759%, 56.651306%, 100%)" offset="0.460938"/><stop stop-opacity="1" stop-color="rgb(15.478516%, 56.332397%, 100%)" offset="0.46875"/><stop stop-opacity="1" stop-color="rgb(15.737915%, 56.013489%, 100%)" offset="0.476562"/><stop stop-opacity="1" stop-color="rgb(15.99884%, 55.696106%, 100%)" offset="0.484375"/><stop stop-opacity="1" stop-color="rgb(16.25824%, 55.377197%, 100%)" offset="0.492188"/><stop stop-opacity="1" stop-color="rgb(16.519165%, 55.058289%, 100%)" offset="0.5"/><stop stop-opacity="1" stop-color="rgb(16.778564%, 54.73938%, 100%)" offset="0.507812"/><stop stop-opacity="1" stop-color="rgb(17.03949%, 54.420471%, 100%)" offset="0.515625"/><stop stop-opacity="1" stop-color="rgb(17.298889%, 54.101562%, 100%)" offset="0.523438"/><stop stop-opacity="1" stop-color="rgb(17.559814%, 53.782654%, 100%)" offset="0.53125"/><stop stop-opacity="1" stop-color="rgb(17.819214%, 53.463745%, 100%)" offset="0.539062"/><stop stop-opacity="1" stop-color="rgb(18.080139%, 53.144836%, 100%)" offset="0.546875"/><stop stop-opacity="1" stop-color="rgb(18.339539%, 52.825928%, 100%)" offset="0.554688"/><stop stop-opacity="1" stop-color="rgb(18.600464%, 52.508545%, 100%)" offset="0.5625"/><stop stop-opacity="1" stop-color="rgb(18.859863%, 52.189636%, 100%)" offset="0.570312"/><stop stop-opacity="1" stop-color="rgb(19.120789%, 51.870728%, 100%)" offset="0.578125"/><stop stop-opacity="1" stop-color="rgb(19.380188%, 51.551819%, 100%)" offset="0.585938"/><stop stop-opacity="1" stop-color="rgb(19.641113%, 51.23291%, 100%)" offset="0.59375"/><stop stop-opacity="1" stop-color="rgb(19.900513%, 50.914001%, 100%)" offset="0.601562"/><stop stop-opacity="1" stop-color="rgb(20.161438%, 50.595093%, 100%)" offset="0.609375"/><stop stop-opacity="1" stop-color="rgb(20.420837%, 50.276184%, 100%)" offset="0.617188"/><stop stop-opacity="1" stop-color="rgb(20.681763%, 49.957275%, 100%)" offset="0.625"/><stop stop-opacity="1" stop-color="rgb(20.941162%, 49.639893%, 100%)" offset="0.632812"/><stop stop-opacity="1" stop-color="rgb(21.202087%, 49.320984%, 100%)" offset="0.640625"/><stop stop-opacity="1" stop-color="rgb(21.461487%, 49.002075%, 100%)" offset="0.648438"/><stop stop-opacity="1" stop-color="rgb(21.722412%, 48.683167%, 100%)" offset="0.65625"/><stop stop-opacity="1" stop-color="rgb(21.981812%, 48.364258%, 100%)" offset="0.664062"/><stop stop-opacity="1" stop-color="rgb(22.242737%, 48.045349%, 100%)" offset="0.671875"/><stop stop-opacity="1" stop-color="rgb(22.502136%, 47.72644%, 100%)" offset="0.679688"/><stop stop-opacity="1" stop-color="rgb(22.763062%, 47.407532%, 100%)" offset="0.6875"/><stop stop-opacity="1" stop-color="rgb(23.022461%, 47.088623%, 100%)" offset="0.695312"/><stop stop-opacity="1" stop-color="rgb(23.283386%, 46.769714%, 100%)" offset="0.703125"/><stop stop-opacity="1" stop-color="rgb(23.542786%, 46.452332%, 100%)" offset="0.710938"/><stop stop-opacity="1" stop-color="rgb(23.803711%, 46.133423%, 100%)" offset="0.71875"/><stop stop-opacity="1" stop-color="rgb(24.06311%, 45.814514%, 100%)" offset="0.726562"/><stop stop-opacity="1" stop-color="rgb(24.324036%, 45.495605%, 100%)" offset="0.734375"/><stop stop-opacity="1" stop-color="rgb(24.583435%, 45.176697%, 100%)" offset="0.742188"/><stop stop-opacity="1" stop-color="rgb(24.84436%, 44.857788%, 100%)" offset="0.75"/><stop stop-opacity="1" stop-color="rgb(25.10376%, 44.538879%, 100%)" offset="0.757812"/><stop stop-opacity="1" stop-color="rgb(25.364685%, 44.219971%, 100%)" offset="0.765625"/><stop stop-opacity="1" stop-color="rgb(25.624084%, 43.901062%, 100%)" offset="0.773438"/><stop stop-opacity="1" stop-color="rgb(25.88501%, 43.583679%, 100%)" offset="0.78125"/><stop stop-opacity="1" stop-color="rgb(26.144409%, 43.264771%, 100%)" offset="0.789062"/><stop stop-opacity="1" stop-color="rgb(26.405334%, 42.945862%, 100%)" offset="0.796875"/><stop stop-opacity="1" stop-color="rgb(26.664734%, 42.626953%, 100%)" offset="0.804688"/><stop stop-opacity="1" stop-color="rgb(26.925659%, 42.308044%, 100%)" offset="0.8125"/><stop stop-opacity="1" stop-color="rgb(27.185059%, 41.989136%, 100%)" offset="0.820313"/><stop stop-opacity="1" stop-color="rgb(27.445984%, 41.670227%, 100%)" offset="0.828125"/><stop stop-opacity="1" stop-color="rgb(27.705383%, 41.351318%, 100%)" offset="0.835938"/><stop stop-opacity="1" stop-color="rgb(27.966309%, 41.03241%, 100%)" offset="0.84375"/><stop stop-opacity="1" stop-color="rgb(28.225708%, 40.713501%, 100%)" offset="0.851562"/><stop stop-opacity="1" stop-color="rgb(28.486633%, 40.396118%, 100%)" offset="0.859375"/><stop stop-opacity="1" stop-color="rgb(28.746033%, 40.077209%, 100%)" offset="0.867188"/><stop stop-opacity="1" stop-color="rgb(29.006958%, 39.758301%, 100%)" offset="0.875"/><stop stop-opacity="1" stop-color="rgb(29.266357%, 39.439392%, 100%)" offset="0.882812"/><stop stop-opacity="1" stop-color="rgb(29.527283%, 39.120483%, 100%)" offset="0.890625"/><stop stop-opacity="1" stop-color="rgb(29.786682%, 38.801575%, 100%)" offset="0.898438"/><stop stop-opacity="1" stop-color="rgb(30.047607%, 38.482666%, 100%)" offset="0.90625"/><stop stop-opacity="1" stop-color="rgb(30.307007%, 38.163757%, 100%)" offset="0.914062"/><stop stop-opacity="1" stop-color="rgb(30.567932%, 37.844849%, 100%)" offset="0.921875"/><stop stop-opacity="1" stop-color="rgb(30.827332%, 37.52594%, 100%)" offset="0.929688"/><stop stop-opacity="1" stop-color="rgb(31.088257%, 37.208557%, 100%)" offset="0.9375"/><stop stop-opacity="1" stop-color="rgb(31.347656%, 36.889648%, 100%)" offset="0.945312"/><stop stop-opacity="1" stop-color="rgb(31.608582%, 36.57074%, 100%)" offset="0.953125"/><stop stop-opacity="1" stop-color="rgb(31.867981%, 36.251831%, 100%)" offset="0.960938"/><stop stop-opacity="1" stop-color="rgb(32.128906%, 35.932922%, 100%)" offset="0.96875"/><stop stop-opacity="1" stop-color="rgb(32.388306%, 35.614014%, 100%)" offset="0.976562"/><stop stop-opacity="1" stop-color="rgb(32.647705%, 35.295105%, 100%)" offset="0.984375"/><stop stop-opacity="1" stop-color="rgb(32.90863%, 34.976196%, 100%)" offset="0.992188"/><stop stop-opacity="1" stop-color="rgb(33.16803%, 34.657288%, 100%)" offset="1"/></linearGradient></defs><path fill="#60b0e5" d="M 187.5 0 C 84.109375 0 0 84.109375 0 187.5 C 0 290.890625 84.109375 375 187.5 375 C 290.890625 375 375 290.890625 375 187.5 C 375 84.109375 290.890625 0 187.5 0 " fill-opacity="1" fill-rule="nonzero"/><g clip-path="url(#f09558dc4a)"><g clip-path="url(#b4f1b30406)"><path fill="url(#0b55d034c0)" d="M 30.042969 1.132812 L 30.042969 375 L 345.042969 375 L 345.042969 1.132812 Z M 30.042969 1.132812 " fill-rule="nonzero"/></g></g></svg>